<?xml version="1.0" encoding="UTF-8" standalone="no"?>
<!-- Created with Inkscape (http://www.inkscape.org/) -->

<svg
   xmlns:dc="http://purl.org/dc/elements/1.1/"
   xmlns:cc="http://creativecommons.org/ns#"
   xmlns:rdf="http://www.w3.org/1999/02/22-rdf-syntax-ns#"
   xmlns:svg="http://www.w3.org/2000/svg"
   xmlns="http://www.w3.org/2000/svg"
   xmlns:sodipodi="http://sodipodi.sourceforge.net/DTD/sodipodi-0.dtd"
   xmlns:inkscape="http://www.inkscape.org/namespaces/inkscape"
   width="200mm"
   height="200mm"
   viewBox="0 0 708.66142 708.66141"
   id="svg6010"
   version="1.1"
   inkscape:version="0.92.2 5c3e80d, 2017-08-06"
   sodipodi:docname="grey-flower.svg">
  <defs
     id="defs6012" />
  <sodipodi:namedview
     id="base"
     pagecolor="#ffffff"
     bordercolor="#666666"
     borderopacity="1.0"
     inkscape:pageopacity="0.0"
     inkscape:pageshadow="2"
     inkscape:zoom="0.7"
     inkscape:cx="104.55453"
     inkscape:cy="430.27571"
     inkscape:document-units="px"
     inkscape:current-layer="layer1"
     showgrid="false"
     inkscape:window-width="1350"
     inkscape:window-height="792"
     inkscape:window-x="218"
     inkscape:window-y="135"
     inkscape:window-maximized="0" />
  <metadata
     id="metadata6015">
    <rdf:RDF>
      <cc:Work
         rdf:about="">
        <dc:format>image/svg+xml</dc:format>
        <dc:type
           rdf:resource="http://purl.org/dc/dcmitype/StillImage" />
        <dc:title></dc:title>
      </cc:Work>
    </rdf:RDF>
  </metadata>
  <g
     inkscape:label="Layer 1"
     inkscape:groupmode="layer"
     id="layer1"
     transform="translate(0,-343.70079)">
    <ellipse
       transform="matrix(0.01362927,0.99990712,-0.99999251,0.00386985,0,0)"
       ry="94.286652"
       rx="21.476225"
       cy="-351.33075"
       cx="871.70123"
       id="ellipse6591"
       style="opacity:1;fill:#775a1d;fill-opacity:1;fill-rule:nonzero;stroke:none;stroke-width:10;stroke-linecap:round;stroke-linejoin:round;stroke-miterlimit:4;stroke-dasharray:none;stroke-opacity:1" />
    <path
       style="opacity:1;fill:#3b3b3b;fill-opacity:1;fill-rule:nonzero;stroke:none;stroke-width:35.43307114;stroke-linecap:round;stroke-linejoin:round;stroke-miterlimit:4;stroke-dasharray:none;stroke-opacity:1"
       d="m 380.57701,503.21707 c -10.41601,-0.0839 -20.66157,3.7454 -28.80945,10.00325 -20.50911,-13.23519 -52.0211,-6.50837 -63.80788,14.92857 -1.38253,0.88724 -0.55816,4.54238 -2.91855,3.43619 -23.81283,-1.84026 -47.67231,18.13392 -47.51682,41.8432 -0.0175,3.89685 0.99579,7.69209 1.51226,11.5338 -19.41595,12.04106 -26.02763,40.89566 -11.66866,59.02059 0.92217,1.67736 3.18707,2.70599 3.62406,4.53162 -11.97917,20.50127 -1.72566,50.4312 21.30732,58.50479 3.87676,1.61351 8.01102,2.51659 12.13902,3.26634 0.21075,2.90277 0.77988,5.77475 1.60914,8.56746 -13.10466,-3.74413 -28.94719,-4.22513 -40.06372,4.70531 -10.32569,8.75629 -11.85306,24.09756 -7.03176,36.02982 7.05152,20.3736 21.59771,37.22055 36.59897,52.51737 21.22465,21.01649 45.95798,38.86172 73.4939,51.14577 -0.80058,7.55803 1.49413,17.2217 9.63862,20.03668 10.04869,2.76043 20.52156,0.47059 30.76092,1.4056 7.73223,0.009 16.65841,0.6625 23.06392,-4.32106 4.24063,-4.31817 5.20654,-10.62929 5.04267,-16.38442 41.45083,-16.21951 76.56669,-45.68021 102.92442,-80.57865 9.25762,-13.15791 17.13243,-28.80957 15.53166,-45.21412 -2.35677,-14.35364 -17.38468,-24.85895 -31.99759,-23.39392 -10.36035,-0.10776 -20.7149,3.17908 -30.03325,6.70743 1.16839,-3.31979 1.67928,-6.83291 2.6618,-10.1601 22.74086,-4.52986 39.92378,-29.12958 33.33547,-51.43314 -0.70253,-3.08392 -2.43115,-5.8158 -3.31298,-8.84114 16.704,-15.82441 16.61817,-46.00168 -1.89759,-60.47007 -2.94911,-2.94041 -7.41513,-4.6481 -10.28125,-7.13691 5.80871,-22.79855 -11.85556,-48.81445 -36.06795,-51.08511 -5.09525,-0.79094 -10.32274,-0.76246 -15.40933,0.0794 -5.95734,-17.13136 -23.79565,-29.84126 -42.42737,-29.2445 z m 16.95889,68.76277 c 0.86673,1.80423 -1.73359,0.57462 0,0 z m 30.3045,30.81084 c 2.02652,2.45335 -2.48304,1.4191 0,0 z m -132.89955,0.93475 c 2.1048,1.08195 -1.61743,1.23247 -0.24863,-0.003 l 0.11301,-0.008 0.13562,0.0116 z m 138.17795,38.79933 c 1.81484,1.13463 -2.09875,0.44812 0,0 z m -16.65752,34.34875 c 1.11574,1.99512 -2.14898,0.89847 0,0 z m -90.77355,70.0428 c 1.12705,1.62276 4.1006,2.60481 3.46044,4.94531 -1.3896,-1.55561 -5.45935,-3.29179 -5.16538,-4.49057 0.52876,-0.10433 1.21017,-0.55582 1.70494,-0.45474 z m 71.63936,0.001 c 2.69055,0.8904 5.47696,1.49727 8.29539,1.83687 -2.8729,2.12893 -5.69672,4.32077 -8.48483,6.5548 -0.0263,-2.73344 -0.26201,-5.8465 0.18944,-8.39167 z"
       id="rect6593"
       inkscape:connector-curvature="0" />
    <rect
       style="opacity:1;fill:#268c00;fill-opacity:1;fill-rule:nonzero;stroke:none;stroke-width:35.43307114;stroke-linecap:round;stroke-linejoin:round;stroke-miterlimit:4;stroke-dasharray:none;stroke-opacity:1"
       id="rect6558"
       width="39.363476"
       height="250.99796"
       x="343.52704"
       y="619.64758" />
    <ellipse
       style="opacity:1;fill:#dbd7b5;fill-opacity:1;fill-rule:nonzero;stroke:none;stroke-width:10;stroke-linecap:round;stroke-linejoin:round;stroke-miterlimit:4;stroke-dasharray:none;stroke-opacity:1"
       id="path6562"
       cx="282.18112"
       cy="573.83655"
       rx="30.221647"
       ry="28.102531" />
    <ellipse
       ry="28.102531"
       rx="30.221647"
       cy="548.42883"
       cx="327.05548"
       id="ellipse6564"
       style="opacity:1;fill:#dbd7b5;fill-opacity:1;fill-rule:nonzero;stroke:none;stroke-width:10;stroke-linecap:round;stroke-linejoin:round;stroke-miterlimit:4;stroke-dasharray:none;stroke-opacity:1" />
    <ellipse
       style="opacity:1;fill:#dbd7b5;fill-opacity:1;fill-rule:nonzero;stroke:none;stroke-width:10;stroke-linecap:round;stroke-linejoin:round;stroke-miterlimit:4;stroke-dasharray:none;stroke-opacity:1"
       id="ellipse6566"
       cx="380.58981"
       cy="545.34906"
       rx="30.221647"
       ry="28.102531" />
    <ellipse
       ry="28.102531"
       rx="30.221647"
       cy="573.83655"
       cx="430.97507"
       id="ellipse6568"
       style="opacity:1;fill:#dbd7b5;fill-opacity:1;fill-rule:nonzero;stroke:none;stroke-width:10;stroke-linecap:round;stroke-linejoin:round;stroke-miterlimit:4;stroke-dasharray:none;stroke-opacity:1" />
    <ellipse
       style="opacity:1;fill:#dbd7b5;fill-opacity:1;fill-rule:nonzero;stroke:none;stroke-width:10;stroke-linecap:round;stroke-linejoin:round;stroke-miterlimit:4;stroke-dasharray:none;stroke-opacity:1"
       id="ellipse6570"
       cx="454.59317"
       cy="621.57239"
       rx="30.221647"
       ry="28.102531" />
    <ellipse
       ry="28.102531"
       rx="30.221647"
       cy="670.07812"
       cx="446.72046"
       id="ellipse6572"
       style="opacity:1;fill:#dbd7b5;fill-opacity:1;fill-rule:nonzero;stroke:none;stroke-width:10;stroke-linecap:round;stroke-linejoin:round;stroke-miterlimit:4;stroke-dasharray:none;stroke-opacity:1" />
    <ellipse
       style="opacity:1;fill:#dbd7b5;fill-opacity:1;fill-rule:nonzero;stroke:none;stroke-width:10;stroke-linecap:round;stroke-linejoin:round;stroke-miterlimit:4;stroke-dasharray:none;stroke-opacity:1"
       id="ellipse6574"
       cx="412.0806"
       cy="707.03485"
       rx="30.221647"
       ry="28.102531" />
    <ellipse
       ry="28.102531"
       rx="30.221647"
       cy="720.12366"
       cx="360.12082"
       id="ellipse6576"
       style="opacity:1;fill:#dbd7b5;fill-opacity:1;fill-rule:nonzero;stroke:none;stroke-width:10;stroke-linecap:round;stroke-linejoin:round;stroke-miterlimit:4;stroke-dasharray:none;stroke-opacity:1" />
    <ellipse
       style="opacity:1;fill:#dbd7b5;fill-opacity:1;fill-rule:nonzero;stroke:none;stroke-width:10;stroke-linecap:round;stroke-linejoin:round;stroke-miterlimit:4;stroke-dasharray:none;stroke-opacity:1"
       id="ellipse6578"
       cx="308.9483"
       cy="707.80475"
       rx="30.221647"
       ry="28.102531" />
    <ellipse
       ry="28.102531"
       rx="30.221647"
       cy="668.53821"
       cx="270.37207"
       id="ellipse6580"
       style="opacity:1;fill:#dbd7b5;fill-opacity:1;fill-rule:nonzero;stroke:none;stroke-width:10;stroke-linecap:round;stroke-linejoin:round;stroke-miterlimit:4;stroke-dasharray:none;stroke-opacity:1" />
    <ellipse
       style="opacity:1;fill:#dbd7b5;fill-opacity:1;fill-rule:nonzero;stroke:none;stroke-width:10;stroke-linecap:round;stroke-linejoin:round;stroke-miterlimit:4;stroke-dasharray:none;stroke-opacity:1"
       id="ellipse6582"
       cx="264.07394"
       cy="620.03247"
       rx="30.221647"
       ry="28.102531" />
    <ellipse
       style="opacity:1;fill:#e3d02f;fill-opacity:1;fill-rule:nonzero;stroke:#775526;stroke-width:19.31055832;stroke-linecap:round;stroke-linejoin:round;stroke-miterlimit:4;stroke-dasharray:none;stroke-opacity:1"
       id="path6560"
       cx="362.42154"
       cy="633.8913"
       rx="70.066986"
       ry="65.829216" />
    <ellipse
       style="opacity:1;fill:#408a25;fill-opacity:1;fill-rule:nonzero;stroke:none;stroke-width:10;stroke-linecap:round;stroke-linejoin:round;stroke-miterlimit:4;stroke-dasharray:none;stroke-opacity:1"
       id="path6587"
       cx="884.86658"
       cy="187.20168"
       rx="33.327435"
       ry="93.453438"
       transform="matrix(0.64636404,0.76302918,-0.77860318,0.62751661,0,0)" />
    <ellipse
       transform="matrix(-0.64636404,0.76302918,0.77860318,0.62751661,0,0)"
       ry="93.453438"
       rx="33.327435"
       cy="747.44769"
       cx="426.13708"
       id="ellipse6589"
       style="opacity:1;fill:#408a25;fill-opacity:1;fill-rule:nonzero;stroke:none;stroke-width:10;stroke-linecap:round;stroke-linejoin:round;stroke-miterlimit:4;stroke-dasharray:none;stroke-opacity:1" />
  </g>
</svg>
