<?xml version="1.0" encoding="UTF-8" standalone="no"?>
<!-- Created with Inkscape (http://www.inkscape.org/) -->

<svg
   xmlns:dc="http://purl.org/dc/elements/1.1/"
   xmlns:cc="http://creativecommons.org/ns#"
   xmlns:rdf="http://www.w3.org/1999/02/22-rdf-syntax-ns#"
   xmlns:svg="http://www.w3.org/2000/svg"
   xmlns="http://www.w3.org/2000/svg"
   xmlns:sodipodi="http://sodipodi.sourceforge.net/DTD/sodipodi-0.dtd"
   xmlns:inkscape="http://www.inkscape.org/namespaces/inkscape"
   width="200mm"
   height="200mm"
   viewBox="0 0 708.66142 708.66141"
   id="svg4266"
   version="1.1"
   inkscape:version="0.91 r13725"
   sodipodi:docname="hero.svg">
  <defs
     id="defs4268" />
  <sodipodi:namedview
     id="base"
     pagecolor="#ffffff"
     bordercolor="#666666"
     borderopacity="1.0"
     inkscape:pageopacity="0.0"
     inkscape:pageshadow="2"
     inkscape:zoom="0.98994949"
     inkscape:cx="297.48873"
     inkscape:cy="303.31589"
     inkscape:document-units="px"
     inkscape:current-layer="layer1"
     showgrid="false"
     inkscape:window-width="1167"
     inkscape:window-height="1008"
     inkscape:window-x="-7"
     inkscape:window-y="0"
     inkscape:window-maximized="0" />
  <metadata
     id="metadata4271">
    <rdf:RDF>
      <cc:Work
         rdf:about="">
        <dc:format>image/svg+xml</dc:format>
        <dc:type
           rdf:resource="http://purl.org/dc/dcmitype/StillImage" />
        <dc:title></dc:title>
      </cc:Work>
    </rdf:RDF>
  </metadata>
  <g
     inkscape:label="Layer 1"
     inkscape:groupmode="layer"
     id="layer1"
     transform="translate(0,-343.70079)">
    <path
       style="opacity:1;fill:#000000;fill-opacity:1;fill-rule:nonzero;stroke:none;stroke-width:35.43307114;stroke-linecap:round;stroke-linejoin:round;stroke-miterlimit:4;stroke-dasharray:none;stroke-opacity:1"
       d="m 405.65234,400.89453 c -20.8385,6.10522 -32.73683,26.08485 -49.81699,37.98169 -5.21074,4.59269 -10.42148,9.18539 -15.63223,13.77808 -36.47196,-13.30941 -71.5494,-31.52804 -109.63867,-40.1543 -14.13382,2.56697 -20.75818,19.6501 -16.80859,32.40234 0.006,12.90726 0.4902,25.80709 0.86719,38.70704 -33.95107,-0.55569 -68.13386,-4.74057 -102.03907,-0.8418 -16.45154,7.35243 -12.16604,35.37346 5.1504,38.58594 17.36341,8.42906 34.50561,17.30169 51.71093,26.04687 -21.10473,18.76505 -44.51144,35.48043 -61.93554,57.95899 -6.1803,16.94405 17.01184,33.46512 31.34375,23.09765 16.13175,-6.00482 32.34179,-11.67147 48.57617,-17.38476 -0.40923,38.22014 16.75153,75.54653 43.77343,102.1914 -10.7943,3.48554 -16.79989,15.18801 -15.47327,26.10313 -0.49857,10.00676 1.29376,20.77114 0.0885,30.21718 -4.96718,-0.25428 -9.91685,1.14544 -14.26758,3.48829 -19.26796,-30.78226 -36.86472,-62.91279 -58.66601,-91.98001 -33.19922,-27.17713 -63.444563,-58.11518 -98.964848,-82.35007 -16.642918,-4.42885 -31.084043,16.80845 -23.201172,31.30664 8.749309,39.3063 13.223609,79.65805 24.363606,118.35858 16.619877,29.458 35.990314,57.31711 52.534832,86.78009 -8.898881,7.61758 -10.317964,22.2701 -2.594688,31.19529 6.47338,12.39346 13.4746,28.19206 28.61812,31.4258 8.23828,0.82085 15.42245,-4.1108 22.19922,-8.04101 6.01702,11.96348 18.74138,18.56492 30.57618,22.89453 6.91378,12.14084 12.38317,27.24962 26.07812,33.35156 -11.36349,7.58097 -13.62931,25.02977 -3.98242,34.92188 8.36547,10.45382 22.54632,11.22678 34.85547,10.75586 35.4794,-1.03407 68.26794,-16.36071 101.88476,-25.94532 8.89621,-3.15783 19.07187,-5.80326 26.3418,-11.50195 10.89815,10.04845 26.97708,9.24092 39.57264,15.76576 34.32959,12.36477 70.69522,25.24781 107.72033,20.24596 11.01543,-3.18912 20.71706,-13.0069 21.2168,-24.85156 29.21108,-21.84157 58.46056,-43.57732 87.61373,-65.49861 8.43585,-7.1886 18.31074,-13.59397 24.78666,-22.51311 6.92071,-23.26155 0.8727,-47.59808 2.89529,-71.3105 -0.3668,-40.25032 1.8484,-80.64422 -1.60037,-120.78716 -6.14248,-12.70174 -22.39037,-14.49098 -34.85156,-12.59375 -25.72515,-0.2541 -51.45181,-0.15727 -77.17774,-0.15234 9.97995,-14.59375 16.43289,-31.91725 15.7168,-49.76563 2.92977,-33.80109 9.29353,-67.59001 7.79297,-101.60351 -7.83454,-14.87062 -26.03846,-17.45737 -39.65039,-24.66407 -15.31672,-5.2657 -27.59409,-16.41143 -37.54552,-28.83508 -21.31212,-22.18768 -40.78797,-46.45354 -64.9955,-65.62781 -2.3765,-0.84872 -4.91313,-1.24786 -7.43555,-1.1582 z m -197.0957,432.33985 c 2.87698,1.63144 -2.10605,3.3042 -1.7168,0.54101 0.41276,-0.47742 1.10492,-0.7043 1.7168,-0.54101 z m 39.76758,36.99804 c -0.19078,7.62519 0.10285,15.47899 -0.48633,22.86914 -2.40702,-4.20198 -7.27553,-8.17508 -6.9628,-13.25327 1.51282,-3.97224 3.43422,-8.65853 7.53702,-10.80141 l -0.0739,0.99726 -0.014,0.18828 z M 463.125,935.80469 c 4.76212,3.25309 -4.57993,1.90532 0,0 z"
       id="rect5242"
       inkscape:connector-curvature="0" />
    <ellipse
       style="opacity:0.3;fill:#353535;fill-opacity:1;fill-rule:nonzero;stroke:none;stroke-width:35.43307114;stroke-linecap:round;stroke-linejoin:round;stroke-miterlimit:4;stroke-dasharray:none;stroke-opacity:1"
       id="path4924"
       cx="368.83447"
       cy="977.00024"
       rx="204.5564"
       ry="23.271168" />
    <g
       id="g5210">
      <rect
         style="opacity:1;fill:#4c4c4c;fill-opacity:1;fill-rule:nonzero;stroke:none;stroke-width:35.43307114;stroke-linecap:round;stroke-linejoin:round;stroke-miterlimit:4;stroke-dasharray:none;stroke-opacity:1"
         id="rect4973"
         width="122.85714"
         height="31.428572"
         x="783.21136"
         y="263.12747"
         transform="matrix(0.5098024,0.86029153,-0.86029153,0.5098024,0,0)" />
      <path
         sodipodi:nodetypes="ccsc"
         inkscape:connector-curvature="0"
         id="rect4895"
         d="m 374.59023,940.47352 74.31029,0 c 0,0 85.38885,21.58011 54.68115,31.59432 -28.82652,9.40074 -128.99144,-31.59432 -128.99144,-31.59432 z"
         style="opacity:1;fill:#353535;fill-opacity:1;fill-rule:nonzero;stroke:none;stroke-width:35.43307114;stroke-linecap:round;stroke-linejoin:round;stroke-miterlimit:4;stroke-dasharray:none;stroke-opacity:1" />
      <ellipse
         ry="130.85057"
         rx="152.98187"
         cy="614.08881"
         cx="360.3121"
         id="path4814"
         style="opacity:1;fill:#feb8a9;fill-opacity:1;fill-rule:nonzero;stroke:none;stroke-width:35.43307114;stroke-linecap:round;stroke-linejoin:round;stroke-miterlimit:4;stroke-dasharray:none;stroke-opacity:1" />
      <path
         sodipodi:nodetypes="ccccccccccccccccccc"
         inkscape:connector-curvature="0"
         id="path4839"
         d="m 307.4305,562.59205 c -22.48944,18.26734 -45.12079,36.38929 -67.54426,54.71878 -2.25738,3.40332 -9.10633,6.09149 -11.74354,1.60242 1.66622,-13.34705 7.50011,-26.15395 11.20172,-39.18936 -8.4514,3.02215 -16.91146,6.02442 -25.37399,9.02226 -2.21156,8.79914 -3.35585,17.76996 -3.41469,26.76999 0.075,41.00961 26.6643,77.09172 64.95551,101.77195 4.56537,0.28415 5.10107,2.9824 9.68118,3.04372 79.25069,-0.0354 151.93086,-33.29247 188.68892,-86.34059 -0.80832,-6.80339 -1.6255,-13.60564 -2.47281,-20.40076 -11.51398,4.72421 -23.07268,9.36165 -34.60849,14.04407 -3.54764,2.54529 -11.04859,4.62579 -12.9957,-0.5699 3.01423,-17.41131 8.09579,-34.5838 12.15305,-51.85674 -17.31899,11.0947 -34.56879,22.27121 -51.93084,33.31338 -2.86659,3.04551 -9.59934,6.42313 -12.7311,1.91593 0.0637,-13.20085 3.97477,-26.34358 5.93478,-39.38861 -17.19676,8.80438 -34.20105,17.90574 -51.56227,26.45647 -4.05512,2.40888 -9.85406,7.02026 -14.55659,3.21318 -3.17447,-12.37732 -2.4501,-25.47988 -3.68088,-38.12619 z"
         style="opacity:1;fill:#ffd6cc;fill-opacity:1;fill-rule:nonzero;stroke:none;stroke-width:35.43307114;stroke-linecap:round;stroke-linejoin:round;stroke-miterlimit:4;stroke-dasharray:none;stroke-opacity:1" />
      <path
         sodipodi:nodetypes="ccccccccccccccccccccc"
         inkscape:connector-curvature="0"
         id="rect4816"
         d="m 235.19418,505.49086 -2.01606,-72.17011 111.19667,43.73949 62.18438,-54.82299 79.0583,83.66765 51.4095,23.5365 -11.52034,115.67603 -36.28905,60.13115 -12.09636,-100.89803 -47.19737,19.23687 15.01243,-61.27772 -67.93398,43.697 8.10024,-45.99013 -68.79801,35.54362 -3.13208,-44.97096 -79.16631,64.08044 14.14842,-44.97097 -121.97156,43.31481 78.48229,-68.79411 -83.52243,-42.29563 z"
         style="opacity:1;fill:#ff7bd3;fill-opacity:1;fill-rule:nonzero;stroke:none;stroke-width:35.43307114;stroke-linecap:round;stroke-linejoin:round;stroke-miterlimit:4;stroke-dasharray:none;stroke-opacity:1" />
      <path
         inkscape:connector-curvature="0"
         id="path4819"
         d="m 459.40048,509.2115 -88.79257,-15.85459 -53.76431,0.72066 -44.8036,-10.08929 -2.44382,21.61991 -36.65749,25.22322 44.80359,1.44132 61.09581,-20.89923 -0.81461,28.82653 48.87664,-15.13393 21.99449,20.89924 41.54515,-16.57526 22.8091,33.87118 17.10683,6.48597 8.96071,12.97195 z"
         style="fill:#b3a4fa;fill-opacity:1;fill-rule:evenodd;stroke:none;stroke-width:1px;stroke-linecap:butt;stroke-linejoin:miter;stroke-opacity:1" />
      <ellipse
         transform="matrix(0.99804049,-0.06257133,0.07984976,0.99680691,0,0)"
         ry="32.09177"
         rx="16.690449"
         cy="650.57355"
         cx="193.18094"
         id="path4829"
         style="opacity:1;fill:#000000;fill-opacity:1;fill-rule:nonzero;stroke:none;stroke-width:35.43307114;stroke-linecap:round;stroke-linejoin:round;stroke-miterlimit:4;stroke-dasharray:none;stroke-opacity:1" />
      <ellipse
         style="opacity:1;fill:#000000;fill-opacity:1;fill-rule:nonzero;stroke:none;stroke-width:35.43307114;stroke-linecap:round;stroke-linejoin:round;stroke-miterlimit:4;stroke-dasharray:none;stroke-opacity:1"
         id="ellipse4831"
         cx="435.49799"
         cy="626.06909"
         rx="16.698135"
         ry="32.072922"
         transform="matrix(0.99970123,0.0244428,-0.03122512,0.99951238,0,0)" />
      <ellipse
         ry="8.6479616"
         rx="9.7753296"
         cy="618.73785"
         cx="411.35483"
         id="path4833"
         style="opacity:1;fill:#ffffff;fill-opacity:1;fill-rule:nonzero;stroke:none;stroke-width:35.43307114;stroke-linecap:round;stroke-linejoin:round;stroke-miterlimit:4;stroke-dasharray:none;stroke-opacity:1" />
      <ellipse
         ry="8.6479616"
         rx="9.7753296"
         style="opacity:1;fill:#ffffff;fill-opacity:1;fill-rule:nonzero;stroke:none;stroke-width:35.43307114;stroke-linecap:round;stroke-linejoin:round;stroke-miterlimit:4;stroke-dasharray:none;stroke-opacity:1"
         id="circle4835"
         cx="238.64099"
         cy="617.29651" />
      <rect
         transform="matrix(0.99971246,-0.02397906,0.02016701,0.99979663,0,0)"
         y="715.29059"
         x="293.25656"
         height="14.412715"
         width="64.107742"
         id="rect4837"
         style="opacity:1;fill:#000000;fill-opacity:1;fill-rule:nonzero;stroke:none;stroke-width:35.43307114;stroke-linecap:round;stroke-linejoin:round;stroke-miterlimit:4;stroke-dasharray:none;stroke-opacity:1" />
      <path
         inkscape:connector-curvature="0"
         id="rect4859"
         d="m 268.14234,733.17388 188.93352,0 0,177.33593 -188.93352,0 z"
         style="opacity:1;fill:#767676;fill-opacity:1;fill-rule:nonzero;stroke:none;stroke-width:35.43307114;stroke-linecap:round;stroke-linejoin:round;stroke-miterlimit:4;stroke-dasharray:none;stroke-opacity:1" />
      <path
         style="opacity:1;fill:#515151;fill-opacity:1;fill-rule:nonzero;stroke:none;stroke-width:35.43307114;stroke-linecap:round;stroke-linejoin:round;stroke-miterlimit:4;stroke-dasharray:none;stroke-opacity:1"
         d="m 430.57907,778.01745 26.49679,0 0,132.49236 -26.49679,0 z"
         id="path4862"
         inkscape:connector-curvature="0" />
      <path
         inkscape:connector-curvature="0"
         id="path4864"
         d="m 268.14234,778.01745 26.49679,0 0,132.49236 -26.49679,0 z"
         style="opacity:1;fill:#515151;fill-opacity:1;fill-rule:nonzero;stroke:none;stroke-width:35.43307114;stroke-linecap:round;stroke-linejoin:round;stroke-miterlimit:4;stroke-dasharray:none;stroke-opacity:1" />
      <path
         style="opacity:1;fill:#767676;fill-opacity:1;fill-rule:nonzero;stroke:none;stroke-width:35.43307114;stroke-linecap:round;stroke-linejoin:round;stroke-miterlimit:4;stroke-dasharray:none;stroke-opacity:1"
         d="m 235.8854,733.17389 253.4474,0 0,44.84357 -253.4474,0 z"
         id="path4866"
         inkscape:connector-curvature="0" />
      <path
         sodipodi:nodetypes="cccccc"
         inkscape:connector-curvature="0"
         id="rect4868"
         d="m 436.33924,769.86408 50.99941,0 10.08761,54.01611 -5.21339,64.20785 -35.87386,-60.13115 z"
         style="opacity:1;fill:#feb8a9;fill-opacity:1;fill-rule:nonzero;stroke:none;stroke-width:35.43307114;stroke-linecap:round;stroke-linejoin:round;stroke-miterlimit:4;stroke-dasharray:none;stroke-opacity:1" />
      <ellipse
         transform="matrix(0.94098932,0.33843625,-0.29357614,0.95593569,0,0)"
         ry="30.121824"
         rx="28.040091"
         cy="655.5672"
         cx="722.71143"
         id="path4871"
         style="opacity:1;fill:#ff9f8b;fill-opacity:1;fill-rule:nonzero;stroke:none;stroke-width:35.43307114;stroke-linecap:round;stroke-linejoin:round;stroke-miterlimit:4;stroke-dasharray:none;stroke-opacity:1" />
      <path
         style="opacity:1;fill:#ffd6cc;fill-opacity:1;fill-rule:nonzero;stroke:none;stroke-width:35.43307114;stroke-linecap:round;stroke-linejoin:round;stroke-miterlimit:4;stroke-dasharray:none;stroke-opacity:1"
         d="m 289.48045,773.94077 -50.9994,0 -16.99981,42.80522 -30.49965,69.30371 78.49909,-54.01612 z"
         id="path4879"
         inkscape:connector-curvature="0"
         sodipodi:nodetypes="cccccc" />
      <ellipse
         style="opacity:1;fill:#feb8a9;fill-opacity:1;fill-rule:nonzero;stroke:none;stroke-width:35.43307114;stroke-linecap:round;stroke-linejoin:round;stroke-miterlimit:4;stroke-dasharray:none;stroke-opacity:1"
         id="ellipse4881"
         cx="-761.56201"
         cy="669.79633"
         rx="27.525759"
         ry="31.529409"
         transform="matrix(-0.86331863,-0.50465923,-0.69302418,0.72091434,0,0)" />
      <rect
         y="907.45233"
         x="376.4335"
         height="35.671021"
         width="80.642349"
         id="rect4887"
         style="opacity:1;fill:#711f00;fill-opacity:1;fill-rule:nonzero;stroke:none;stroke-width:35.43307114;stroke-linecap:round;stroke-linejoin:round;stroke-miterlimit:4;stroke-dasharray:none;stroke-opacity:1" />
      <rect
         style="opacity:1;fill:#711f00;fill-opacity:1;fill-rule:nonzero;stroke:none;stroke-width:35.43307114;stroke-linecap:round;stroke-linejoin:round;stroke-miterlimit:4;stroke-dasharray:none;stroke-opacity:1"
         id="rect4891"
         width="80.642349"
         height="35.671021"
         x="265.83826"
         y="907.45233" />
      <rect
         style="opacity:1;fill:#711f00;fill-opacity:1;fill-rule:nonzero;stroke:none;stroke-width:35.43307114;stroke-linecap:round;stroke-linejoin:round;stroke-miterlimit:4;stroke-dasharray:none;stroke-opacity:1"
         id="rect4893"
         width="80.642349"
         height="22.987991"
         x="317.67978"
         y="907.45233" />
      <path
         style="opacity:1;fill:#353535;fill-opacity:1;fill-rule:nonzero;stroke:none;stroke-width:35.43307114;stroke-linecap:round;stroke-linejoin:round;stroke-miterlimit:4;stroke-dasharray:none;stroke-opacity:1"
         d="m 347.80839,940.47352 -74.31029,0 c 0,0 -85.38885,21.58011 -54.68115,31.59432 28.82653,9.40074 128.99144,-31.59432 128.99144,-31.59432 z"
         id="path4898"
         inkscape:connector-curvature="0"
         sodipodi:nodetypes="ccsc" />
      <path
         sodipodi:nodetypes="cccccc"
         inkscape:connector-curvature="0"
         id="rect4953"
         d="m 377.32047,693.96842 248.21622,0 0,176.41652 -124.10811,93.22824 -124.10811,-93.22824 z"
         style="opacity:1;fill:#34bed1;fill-opacity:1;fill-rule:nonzero;stroke:#000000;stroke-width:35.78828812;stroke-linecap:round;stroke-linejoin:round;stroke-miterlimit:4;stroke-dasharray:none;stroke-opacity:1" />
      <path
         sodipodi:nodetypes="ccccc"
         inkscape:connector-curvature="0"
         id="rect4956"
         d="m 504.28571,720.93367 91.42856,0 0,130 -91.42856,69.19545 z"
         style="opacity:1;fill:#00879a;fill-opacity:1;fill-rule:nonzero;stroke:none;stroke-width:35.43307114;stroke-linecap:round;stroke-linejoin:round;stroke-miterlimit:4;stroke-dasharray:none;stroke-opacity:1" />
      <rect
         transform="matrix(0.86029153,-0.5098024,0.5098024,0.86029153,0,0)"
         y="789.48425"
         x="-340.97586"
         height="31.428572"
         width="122.85714"
         id="rect4959"
         style="opacity:1;fill:#4c4c4c;fill-opacity:1;fill-rule:nonzero;stroke:none;stroke-width:35.43307114;stroke-linecap:round;stroke-linejoin:round;stroke-miterlimit:4;stroke-dasharray:none;stroke-opacity:1" />
      <path
         sodipodi:nodetypes="cccccc"
         inkscape:connector-curvature="0"
         id="rect4961"
         d="M 131.5426,699.09261 196.07069,803.69128 126.38851,844.3362 61.860418,739.73753 38.842446,619.20468 Z"
         style="opacity:1;fill:#4c4c4c;fill-opacity:1;fill-rule:nonzero;stroke:none;stroke-width:35.43307114;stroke-linecap:round;stroke-linejoin:round;stroke-miterlimit:4;stroke-dasharray:none;stroke-opacity:1" />
      <path
         sodipodi:nodetypes="cccccc"
         inkscape:connector-curvature="0"
         id="path4964"
         d="m 38.86732,619.19102 92.87807,80.19714 63.63946,102.69355 L 157.5932,823.71225 39.073236,620.2742 Z"
         style="opacity:1;fill:#c7c7c7;fill-opacity:1;fill-rule:nonzero;stroke:none;stroke-width:35.43307114;stroke-linecap:round;stroke-linejoin:round;stroke-miterlimit:4;stroke-dasharray:none;stroke-opacity:1" />
    </g>
  </g>
</svg>
