<?xml version="1.0" encoding="UTF-8" standalone="no"?>
<!-- Created with Inkscape (http://www.inkscape.org/) -->

<svg
   xmlns:dc="http://purl.org/dc/elements/1.1/"
   xmlns:cc="http://creativecommons.org/ns#"
   xmlns:rdf="http://www.w3.org/1999/02/22-rdf-syntax-ns#"
   xmlns:svg="http://www.w3.org/2000/svg"
   xmlns="http://www.w3.org/2000/svg"
   xmlns:sodipodi="http://sodipodi.sourceforge.net/DTD/sodipodi-0.dtd"
   xmlns:inkscape="http://www.inkscape.org/namespaces/inkscape"
   width="200mm"
   height="200mm"
   viewBox="0 0 708.66142 708.66141"
   id="svg4266"
   version="1.1"
   inkscape:version="0.91 r13725"
   sodipodi:docname="hero.svg">
  <defs
     id="defs4268" />
  <sodipodi:namedview
     id="base"
     pagecolor="#ffffff"
     bordercolor="#666666"
     borderopacity="1.0"
     inkscape:pageopacity="0.0"
     inkscape:pageshadow="2"
     inkscape:zoom="0.7"
     inkscape:cx="426.08175"
     inkscape:cy="206.01533"
     inkscape:document-units="px"
     inkscape:current-layer="layer1"
     showgrid="false"
     inkscape:window-width="1375"
     inkscape:window-height="1008"
     inkscape:window-x="-7"
     inkscape:window-y="0"
     inkscape:window-maximized="0" />
  <metadata
     id="metadata4271">
    <rdf:RDF>
      <cc:Work
         rdf:about="">
        <dc:format>image/svg+xml</dc:format>
        <dc:type
           rdf:resource="http://purl.org/dc/dcmitype/StillImage" />
        <dc:title />
      </cc:Work>
    </rdf:RDF>
  </metadata>
  <g
     inkscape:label="Layer 1"
     inkscape:groupmode="layer"
     id="layer1"
     transform="translate(0,-343.70079)">
    <path
       style="opacity:1;fill:#000000;fill-opacity:1;fill-rule:nonzero;stroke:none;stroke-width:35.43307114;stroke-linecap:round;stroke-linejoin:round;stroke-miterlimit:4;stroke-dasharray:none;stroke-opacity:1"
       d="m 408.15017,472.32015 c -15.8719,4.65012 -24.93441,19.86785 -37.94372,28.92922 -3.96882,3.49808 -7.93765,6.99616 -11.90648,10.49424 -27.77931,-10.13727 -54.49647,-24.01371 -83.50762,-30.58401 -10.7652,1.95517 -15.81072,14.96674 -12.80247,24.67964 0.005,9.83097 0.37337,19.65628 0.66051,29.48169 -25.85925,-0.42325 -51.89499,-3.61072 -77.7193,-0.64117 -12.53052,5.60007 -9.26641,26.94262 3.92286,29.38945 13.22505,6.42009 26.28162,13.17804 39.38626,19.83891 -16.07467,14.29263 -33.90268,27.0241 -47.17396,44.14517 -4.7073,12.90564 12.95728,25.48912 23.87335,17.59261 12.28695,-4.57365 24.63352,-8.88972 36.99863,-13.24132 -0.31169,29.11084 12.75901,57.54094 33.34057,77.83533 -8.22161,2.6548 -12.79584,11.56813 -11.78541,19.88176 -0.37974,7.62177 0.98541,15.82059 0.0674,23.01528 -3.78331,-0.19367 -7.55329,0.87244 -10.86708,2.6569 -14.67567,-23.44568 -28.07846,-47.91829 -44.68368,-70.05769 -25.28658,-20.69979 -48.32332,-44.26413 -75.37777,-62.72293 -12.67629,-3.37329 -23.67554,12.80236 -17.67146,23.84508 6.66402,29.93812 10.07192,60.67252 18.55684,90.14925 12.65873,22.43705 27.41246,43.65628 40.01379,66.09711 -6.77794,5.80203 -7.8588,16.9623 -1.97627,23.76027 4.93052,9.43963 10.26309,21.47283 21.79733,23.93585 6.27479,0.62521 11.7467,-3.13104 16.90831,-6.12454 4.58294,9.11213 14.2746,14.1402 23.28872,17.4379 5.26596,9.24722 9.43179,20.75501 19.86272,25.40262 -8.65514,5.77414 -10.38093,19.06423 -3.03326,26.59868 6.37166,7.96228 17.17268,8.55101 26.54809,8.19233 27.02332,-0.78761 51.99711,-12.46134 77.60177,-19.76157 6.7759,-2.4052 14.52632,-4.42012 20.06355,-8.7606 8.30071,7.65352 20.54742,7.03846 30.14098,12.00818 26.14755,9.41778 53.84587,19.2303 82.0465,15.42058 8.39003,-2.42903 15.7794,-9.90686 16.16003,-18.92849 22.24898,-16.6359 44.5272,-33.19119 66.73206,-49.88781 6.42527,-5.47529 13.9466,-10.35401 18.87906,-17.14739 5.27125,-17.71744 0.66471,-36.25365 2.20524,-54.3145 -0.27938,-30.65715 1.40785,-61.42365 -1.21894,-91.99901 -4.6785,-9.67444 -17.0539,-11.03723 -26.54512,-9.59219 -19.59387,-0.19353 -39.18889,-0.11978 -58.78336,-0.11603 7.60135,-11.1155 12.51631,-24.31016 11.97089,-37.90459 2.23149,-25.74501 7.07853,-51.48076 5.93561,-77.38755 -5.96727,-11.32639 -19.83251,-13.29662 -30.2002,-18.78569 -11.66617,-4.01068 -21.01738,-12.49997 -28.597,-21.96259 -16.23264,-16.89952 -31.06666,-35.3819 -49.50462,-49.98622 -1.81009,-0.64644 -3.74214,-0.95045 -5.66337,-0.88216 z M 258.02983,801.61706 c 2.19129,1.2426 -1.6041,2.51668 -1.30762,0.41206 0.31438,-0.36363 0.84157,-0.53644 1.30762,-0.41206 z m 30.28946,28.18 c -0.14531,5.80782 0.0783,11.78976 -0.37042,17.41856 -1.83333,-3.20049 -5.54149,-6.22665 -5.3033,-10.09451 1.15226,-3.02551 2.61572,-6.59488 5.74066,-8.22703 l -0.0563,0.75958 -0.0107,0.1434 z m 163.60563,49.94392 c 3.62712,2.47775 -3.48836,1.45121 0,0 z"
       id="rect5242"
       inkscape:connector-curvature="0" />
    <ellipse
       style="opacity:0.3;fill:#353535;fill-opacity:1;fill-rule:nonzero;stroke:none;stroke-width:35.43307114;stroke-linecap:round;stroke-linejoin:round;stroke-miterlimit:4;stroke-dasharray:none;stroke-opacity:1"
       id="path4924"
       cx="380.10739"
       cy="911.1181"
       rx="155.80287"
       ry="17.724768" />
    <rect
       transform="matrix(0.5098024,0.86029153,-0.86029153,0.5098024,0,0)"
       y="200.21414"
       x="790.75104"
       height="23.937954"
       width="93.57563"
       id="rect4973"
       style="opacity:1;fill:#4c4c4c;fill-opacity:1;fill-rule:nonzero;stroke:none;stroke-width:35.43307114;stroke-linecap:round;stroke-linejoin:round;stroke-miterlimit:4;stroke-dasharray:none;stroke-opacity:1" />
    <path
       style="opacity:1;fill:#353535;fill-opacity:1;fill-rule:nonzero;stroke:none;stroke-width:35.43307114;stroke-linecap:round;stroke-linejoin:round;stroke-miterlimit:4;stroke-dasharray:none;stroke-opacity:1"
       d="m 384.49133,883.29705 56.59934,0 c 0,0 65.03745,16.43675 41.64856,24.0642 -21.95607,7.16019 -98.2479,-24.0642 -98.2479,-24.0642 z"
       id="rect4895"
       inkscape:connector-curvature="0"
       sodipodi:nodetypes="ccsc" />
    <ellipse
       style="opacity:1;fill:#feb8a9;fill-opacity:1;fill-rule:nonzero;stroke:none;stroke-width:35.43307114;stroke-linecap:round;stroke-linejoin:round;stroke-miterlimit:4;stroke-dasharray:none;stroke-opacity:1"
       id="path4814"
       cx="373.61621"
       cy="634.70215"
       rx="116.5205"
       ry="99.663925" />
    <path
       style="opacity:1;fill:#ffd6cc;fill-opacity:1;fill-rule:nonzero;stroke:none;stroke-width:35.43307114;stroke-linecap:round;stroke-linejoin:round;stroke-miterlimit:4;stroke-dasharray:none;stroke-opacity:1"
       d="m 333.33831,595.47904 c -17.12936,13.91354 -34.3668,27.71634 -51.44591,41.67722 -1.71936,2.59218 -6.93595,4.63966 -8.94461,1.2205 1.2691,-10.16594 5.71255,-19.92047 8.53193,-29.84905 -6.43711,2.30186 -12.88082,4.58857 -19.32641,6.87191 -1.68446,6.70198 -2.55602,13.53471 -2.60084,20.38969 0.0571,31.23547 20.30919,58.71785 49.47415,77.51584 3.47727,0.21643 3.88529,2.27159 7.37379,2.31829 60.36225,-0.027 115.71999,-25.35761 143.71721,-65.76236 -0.61567,-5.18188 -1.23808,-10.3629 -1.88345,-15.53849 -8.76976,3.59826 -17.57358,7.13042 -26.35997,10.69684 -2.70211,1.93865 -8.4153,3.52329 -9.89834,-0.43407 2.29583,-13.26154 6.16626,-26.34117 9.25652,-39.49732 -13.19122,8.45042 -26.32974,16.96314 -39.55375,25.37354 -2.18338,2.31965 -7.31146,4.89226 -9.6968,1.4593 0.0485,-10.05459 3.02743,-20.06491 4.5203,-30.00082 -13.09812,6.70597 -26.04965,13.63813 -39.27303,20.15089 -3.08863,1.83476 -7.50547,5.34707 -11.08721,2.44736 -2.41787,-9.42733 -1.86614,-19.40706 -2.80358,-29.03927 z"
       id="path4839"
       inkscape:connector-curvature="0"
       sodipodi:nodetypes="ccccccccccccccccccc" />
    <path
       style="opacity:1;fill:#ff7bd3;fill-opacity:1;fill-rule:nonzero;stroke:none;stroke-width:35.43307114;stroke-linecap:round;stroke-linejoin:round;stroke-miterlimit:4;stroke-dasharray:none;stroke-opacity:1"
       d="m 278.31864,551.98722 -1.53556,-54.96924 84.69429,33.31471 47.36349,-41.75659 60.21572,63.72648 39.15667,17.92686 -8.77461,88.10605 -27.63999,45.79963 -9.21334,-76.85022 -35.94845,14.652 11.4344,-46.67292 -51.74275,33.28235 6.16965,-35.02894 -52.40084,27.07223 -2.38559,-34.25268 -60.29798,48.80765 10.77632,-34.25269 -92.90112,32.99125 59.77699,-52.39787 -63.61588,-32.21498 z"
       id="rect4816"
       inkscape:connector-curvature="0"
       sodipodi:nodetypes="ccccccccccccccccccccc" />
    <path
       style="fill:#ffb0e5;fill-opacity:1;fill-rule:evenodd;stroke:none;stroke-width:1px;stroke-linecap:butt;stroke-linejoin:miter;stroke-opacity:1"
       d="m 449.08809,554.82109 -67.62994,-12.07584 -40.95024,0.5489 -34.12521,-7.68463 -1.86136,16.46707 -27.92062,19.21157 34.12519,1.0978 46.53437,-15.91816 -0.62046,21.95608 37.22749,-11.52694 16.75237,15.91816 31.64337,-12.62475 17.37283,25.7984 13.02962,4.94012 6.82504,9.88024 z"
       id="path4819"
       inkscape:connector-curvature="0" />
    <ellipse
       style="opacity:1;fill:#000000;fill-opacity:1;fill-rule:nonzero;stroke:none;stroke-width:35.43307114;stroke-linecap:round;stroke-linejoin:round;stroke-miterlimit:4;stroke-dasharray:none;stroke-opacity:1"
       id="path4829"
       cx="232.68205"
       cy="668.39575"
       rx="12.712483"
       ry="24.443087"
       transform="matrix(0.99804049,-0.06257133,0.07984976,0.99680691,0,0)" />
    <ellipse
       transform="matrix(0.99970123,0.0244428,-0.03122512,0.99951238,0,0)"
       ry="24.42873"
       rx="12.718338"
       cy="641.35675"
       cx="436.05029"
       id="ellipse4831"
       style="opacity:1;fill:#000000;fill-opacity:1;fill-rule:nonzero;stroke:none;stroke-width:35.43307114;stroke-linecap:round;stroke-linejoin:round;stroke-miterlimit:4;stroke-dasharray:none;stroke-opacity:1" />
    <ellipse
       style="opacity:1;fill:#ffffff;fill-opacity:1;fill-rule:nonzero;stroke:none;stroke-width:35.43307114;stroke-linecap:round;stroke-linejoin:round;stroke-miterlimit:4;stroke-dasharray:none;stroke-opacity:1"
       id="path4833"
       cx="412.49353"
       cy="638.24316"
       rx="7.4454985"
       ry="6.5868249" />
    <ellipse
       cy="637.14532"
       cx="280.94394"
       id="circle4835"
       style="opacity:1;fill:#ffffff;fill-opacity:1;fill-rule:nonzero;stroke:none;stroke-width:35.43307114;stroke-linecap:round;stroke-linejoin:round;stroke-miterlimit:4;stroke-dasharray:none;stroke-opacity:1"
       rx="7.4454985"
       ry="6.5868249" />
    <rect
       style="opacity:1;fill:#000000;fill-opacity:1;fill-rule:nonzero;stroke:none;stroke-width:35.43307114;stroke-linecap:round;stroke-linejoin:round;stroke-miterlimit:4;stroke-dasharray:none;stroke-opacity:1"
       id="rect4837"
       width="48.828442"
       height="10.977619"
       x="319.1557"
       y="714.11523"
       transform="matrix(0.99971246,-0.02397906,0.02016701,0.99979663,0,0)" />
    <path
       style="opacity:1;fill:#767676;fill-opacity:1;fill-rule:nonzero;stroke:none;stroke-width:35.43307114;stroke-linecap:round;stroke-linejoin:round;stroke-miterlimit:4;stroke-dasharray:none;stroke-opacity:1"
       d="m 303.414,725.40476 143.90351,0 0,135.07007 -143.90351,0 z"
       id="rect4859"
       inkscape:connector-curvature="0" />
    <path
       inkscape:connector-curvature="0"
       id="path4862"
       d="m 427.13591,759.56041 20.1816,0 0,100.91442 -20.1816,0 z"
       style="opacity:1;fill:#515151;fill-opacity:1;fill-rule:nonzero;stroke:none;stroke-width:35.43307114;stroke-linecap:round;stroke-linejoin:round;stroke-miterlimit:4;stroke-dasharray:none;stroke-opacity:1" />
    <path
       style="opacity:1;fill:#515151;fill-opacity:1;fill-rule:nonzero;stroke:none;stroke-width:35.43307114;stroke-linecap:round;stroke-linejoin:round;stroke-miterlimit:4;stroke-dasharray:none;stroke-opacity:1"
       d="m 303.414,759.56041 20.18161,0 0,100.91442 -20.18161,0 z"
       id="path4864"
       inkscape:connector-curvature="0" />
    <path
       inkscape:connector-curvature="0"
       id="path4866"
       d="m 278.84511,725.40477 193.04129,0 0,34.15565 -193.04129,0 z"
       style="opacity:1;fill:#767676;fill-opacity:1;fill-rule:nonzero;stroke:none;stroke-width:35.43307114;stroke-linecap:round;stroke-linejoin:round;stroke-miterlimit:4;stroke-dasharray:none;stroke-opacity:1" />
    <path
       style="opacity:1;fill:#feb8a9;fill-opacity:1;fill-rule:nonzero;stroke:none;stroke-width:35.43307114;stroke-linecap:round;stroke-linejoin:round;stroke-miterlimit:4;stroke-dasharray:none;stroke-opacity:1"
       d="m 431.52322,753.3503 38.84432,0 7.68335,41.14202 -3.97084,48.90469 -27.32377,-45.79962 z"
       id="rect4868"
       inkscape:connector-curvature="0"
       sodipodi:nodetypes="cccccc" />
    <ellipse
       style="opacity:1;fill:#ff9f8b;fill-opacity:1;fill-rule:nonzero;stroke:none;stroke-width:35.43307114;stroke-linecap:round;stroke-linejoin:round;stroke-miterlimit:4;stroke-dasharray:none;stroke-opacity:1"
       id="path4871"
       cx="694.45233"
       cy="623.01355"
       rx="21.357075"
       ry="22.942654"
       transform="matrix(0.94098932,0.33843625,-0.29357614,0.95593569,0,0)" />
    <path
       sodipodi:nodetypes="cccccc"
       inkscape:connector-curvature="0"
       id="path4879"
       d="m 319.66643,756.45536 -38.84431,0 -12.94811,32.60311 -23.23043,52.78602 59.78979,-41.14204 z"
       style="opacity:1;fill:#ffd6cc;fill-opacity:1;fill-rule:nonzero;stroke:none;stroke-width:35.43307114;stroke-linecap:round;stroke-linejoin:round;stroke-miterlimit:4;stroke-dasharray:none;stroke-opacity:1" />
    <ellipse
       transform="matrix(-0.86331863,-0.50465923,-0.69302418,0.72091434,0,0)"
       ry="24.014757"
       rx="20.965328"
       cy="606.95685"
       cx="-772.63965"
       id="ellipse4881"
       style="opacity:1;fill:#feb8a9;fill-opacity:1;fill-rule:nonzero;stroke:none;stroke-width:35.43307114;stroke-linecap:round;stroke-linejoin:round;stroke-miterlimit:4;stroke-dasharray:none;stroke-opacity:1" />
    <rect
       style="opacity:1;fill:#711f00;fill-opacity:1;fill-rule:nonzero;stroke:none;stroke-width:35.43307114;stroke-linecap:round;stroke-linejoin:round;stroke-miterlimit:4;stroke-dasharray:none;stroke-opacity:1"
       id="rect4887"
       width="61.422226"
       height="27.169266"
       x="385.89529"
       y="858.14606" />
    <rect
       y="858.14606"
       x="301.65906"
       height="27.169266"
       width="61.422226"
       id="rect4891"
       style="opacity:1;fill:#711f00;fill-opacity:1;fill-rule:nonzero;stroke:none;stroke-width:35.43307114;stroke-linecap:round;stroke-linejoin:round;stroke-miterlimit:4;stroke-dasharray:none;stroke-opacity:1" />
    <rect
       y="858.14606"
       x="341.14481"
       height="17.509083"
       width="61.422226"
       id="rect4893"
       style="opacity:1;fill:#711f00;fill-opacity:1;fill-rule:nonzero;stroke:none;stroke-width:35.43307114;stroke-linecap:round;stroke-linejoin:round;stroke-miterlimit:4;stroke-dasharray:none;stroke-opacity:1" />
    <path
       sodipodi:nodetypes="ccsc"
       inkscape:connector-curvature="0"
       id="path4898"
       d="m 364.09262,883.29705 -56.59934,0 c 0,0 -65.03745,16.43675 -41.64856,24.0642 21.95608,7.16019 98.2479,-24.0642 98.2479,-24.0642 z"
       style="opacity:1;fill:#353535;fill-opacity:1;fill-rule:nonzero;stroke:none;stroke-width:35.43307114;stroke-linecap:round;stroke-linejoin:round;stroke-miterlimit:4;stroke-dasharray:none;stroke-opacity:1" />
    <path
       style="opacity:1;fill:#34bed1;fill-opacity:1;fill-rule:nonzero;stroke:#000000;stroke-width:27.25858498;stroke-linecap:round;stroke-linejoin:round;stroke-miterlimit:4;stroke-dasharray:none;stroke-opacity:1"
       d="m 386.57085,695.54344 189.0569,0 0,134.36979 -94.52845,71.00842 -94.52845,-71.00842 z"
       id="rect4953"
       inkscape:connector-curvature="0"
       sodipodi:nodetypes="cccccc" />
    <path
       style="opacity:1;fill:#00879a;fill-opacity:1;fill-rule:nonzero;stroke:none;stroke-width:35.43307114;stroke-linecap:round;stroke-linejoin:round;stroke-miterlimit:4;stroke-dasharray:none;stroke-opacity:1"
       d="m 483.27547,716.08185 69.63767,0 0,99.01608 -69.63767,52.70356 z"
       id="rect4956"
       inkscape:connector-curvature="0"
       sodipodi:nodetypes="ccccc" />
    <rect
       style="opacity:1;fill:#4c4c4c;fill-opacity:1;fill-rule:nonzero;stroke:none;stroke-width:35.43307114;stroke-linecap:round;stroke-linejoin:round;stroke-miterlimit:4;stroke-dasharray:none;stroke-opacity:1"
       id="rect4959"
       width="93.57563"
       height="23.937954"
       x="-259.5083"
       y="795.52881"
       transform="matrix(0.86029153,-0.5098024,0.5098024,0.86029153,0,0)" />
    <path
       style="opacity:1;fill:#4c4c4c;fill-opacity:1;fill-rule:nonzero;stroke:none;stroke-width:35.43307114;stroke-linecap:round;stroke-linejoin:round;stroke-miterlimit:4;stroke-dasharray:none;stroke-opacity:1"
       d="m 199.37115,699.44635 49.1486,79.66884 -53.07427,30.9577 -49.14861,-79.66885 -17.53192,-91.80531 z"
       id="rect4961"
       inkscape:connector-curvature="0"
       sodipodi:nodetypes="cccccc" />
    <path
       style="opacity:1;fill:#c7c7c7;fill-opacity:1;fill-rule:nonzero;stroke:none;stroke-width:35.43307114;stroke-linecap:round;stroke-linejoin:round;stroke-miterlimit:4;stroke-dasharray:none;stroke-opacity:1"
       d="m 128.7839,638.58833 70.74171,61.08313 48.47177,78.21779 -28.78447,16.47516 -90.27217,-154.95106 z"
       id="path4964"
       inkscape:connector-curvature="0"
       sodipodi:nodetypes="cccccc" />
  </g>
</svg>
