<?xml version="1.0" encoding="UTF-8" standalone="no"?>
<!-- Created with Inkscape (http://www.inkscape.org/) -->

<svg
   xmlns:dc="http://purl.org/dc/elements/1.1/"
   xmlns:cc="http://creativecommons.org/ns#"
   xmlns:rdf="http://www.w3.org/1999/02/22-rdf-syntax-ns#"
   xmlns:svg="http://www.w3.org/2000/svg"
   xmlns="http://www.w3.org/2000/svg"
   xmlns:sodipodi="http://sodipodi.sourceforge.net/DTD/sodipodi-0.dtd"
   xmlns:inkscape="http://www.inkscape.org/namespaces/inkscape"
   width="200mm"
   height="200mm"
   viewBox="0 0 708.66142 708.66141"
   id="svg2"
   version="1.1"
   inkscape:version="0.91 r13725"
   sodipodi:docname="princess.svg">
  <defs
     id="defs4" />
  <sodipodi:namedview
     id="base"
     pagecolor="#ffffff"
     bordercolor="#666666"
     borderopacity="1.0"
     inkscape:pageopacity="0.0"
     inkscape:pageshadow="2"
     inkscape:zoom="0.49497475"
     inkscape:cx="158.38212"
     inkscape:cy="356.57743"
     inkscape:document-units="px"
     inkscape:current-layer="layer1"
     showgrid="false"
     inkscape:window-width="1279"
     inkscape:window-height="1008"
     inkscape:window-x="-7"
     inkscape:window-y="0"
     inkscape:window-maximized="0" />
  <metadata
     id="metadata7">
    <rdf:RDF>
      <cc:Work
         rdf:about="">
        <dc:format>image/svg+xml</dc:format>
        <dc:type
           rdf:resource="http://purl.org/dc/dcmitype/StillImage" />
        <dc:title />
      </cc:Work>
    </rdf:RDF>
  </metadata>
  <g
     inkscape:label="Layer 1"
     inkscape:groupmode="layer"
     id="layer1"
     transform="translate(0,-343.70079)">
    <ellipse
       style="opacity:0.3;fill:#000000;fill-opacity:1;fill-rule:nonzero;stroke:none;stroke-width:35.43307114;stroke-linecap:round;stroke-linejoin:round;stroke-miterlimit:4;stroke-dasharray:none;stroke-opacity:1"
       id="path4236"
       cx="360.96011"
       cy="1004.418"
       rx="184.28572"
       ry="30.714285" />
    <path
       style="opacity:1;fill:#1c1c1c;fill-opacity:1;fill-rule:nonzero;stroke:none;stroke-width:35.43307114;stroke-linecap:round;stroke-linejoin:round;stroke-miterlimit:4;stroke-dasharray:none;stroke-opacity:1"
       d="m 394.58398,357.21875 c -30.84054,1.86985 -62.17368,-2.44692 -92.87695,2.26563 -12.59527,4.39598 -15.93999,19.5887 -14.78125,31.45312 -0.0929,3.98783 1.42464,9.01835 -0.22461,12.37695 -18.66562,5.01608 -36.01194,14.27768 -51.35547,25.93946 -12.69339,-3.62022 -29.37514,-6.55512 -39.32617,4.48242 -8.3372,15.28298 -7.40646,34.4685 -1.01758,50.18359 0.23565,1.93305 -2.61643,4.29749 -2.42275,6.79787 -14.54134,45.62321 -5.932,94.36605 4.55154,139.84785 16.01183,68.65845 41.66668,136.67831 39.58801,207.95389 -0.55229,27.94623 -13.06215,55.54712 -34.35882,74.0788 -9.32101,9.4167 -20.99318,21.15301 -18.84431,35.58722 4.45599,14.31389 21.8616,19.631 35.30658,16.42133 9.58838,0.47852 20.71688,-0.87531 29.34186,0.71734 -0.65628,13.70755 6.38275,28.26271 19.6203,33.44507 28.63904,17.58431 59.9306,35.20221 94.49494,35.16821 34.5685,-3.0166 64.36185,-22.8484 93.55859,-39.80469 8.88362,-6.99415 12.65709,-18.96137 11.53711,-29.96484 15.51679,0.61362 31.50384,1.93517 47.03516,-0.64258 7.91485,-1.32847 17.10243,-4.04599 19.64257,-12.66211 4.36692,-11.52711 -1.30749,-25.18519 -11.63331,-31.42348 -19.04829,-18.8872 -38.09133,-41.71399 -39.25075,-69.85401 -6.89887,-63.12786 14.49304,-124.4793 29.63761,-185.02764 13.81384,-52.27336 27.23652,-107.17963 16.80505,-161.34721 -2.46095,-11.98068 -8.90267,-22.92346 -10.6211,-34.97656 0.15735,-12.04007 2.71381,-26.96633 -7.01171,-36.22071 -8.3124,-7.56081 -21.10697,-8.31515 -31.09375,-4.18945 -6.32664,-4.19736 -11.81461,-9.63488 -19.02286,-12.43131 -10.53764,-5.68989 -21.7881,-10.0846 -33.43222,-12.90072 0.8805,-13.88444 1.50991,-31.21728 -10.4668,-40.79883 -7.1631,-3.72111 -15.41572,-4.61385 -23.37891,-4.47461 z"
       id="path4194"
       inkscape:connector-curvature="0" />
    <g
       id="g4162"
       transform="translate(0.0203053,5.9593898)">
      <path
         style="opacity:1;fill:#fb59d5;fill-opacity:1;fill-rule:nonzero;stroke:none;stroke-width:35.43307114;stroke-linecap:round;stroke-linejoin:round;stroke-miterlimit:4;stroke-dasharray:none;stroke-opacity:1"
         d="M 469.13556,440.91431 C 411.18874,395.1126 349.50908,423.46878 349.50908,423.46878 l 0,513.39703 164.48642,0 c 0,0 -39.67246,-37.82557 -47.35215,-62.92853 -42.64683,-139.4014 116.85953,-342.62596 2.49221,-433.02297 z"
         id="path4148"
         inkscape:connector-curvature="0"
         sodipodi:nodetypes="scccss" />
      <path
         sodipodi:nodetypes="scccss"
         inkscape:connector-curvature="0"
         id="rect4143"
         d="m 248.57422,440.91431 c 57.94682,-45.80171 119.62649,-17.44553 119.62649,-17.44553 l 0,513.39703 -164.48642,0 c 0,0 39.67245,-37.82557 47.35215,-62.92853 42.64683,-139.4014 -116.85954,-342.62596 -2.49222,-433.02297 z"
         style="opacity:1;fill:#fb59d5;fill-opacity:1;fill-rule:nonzero;stroke:none;stroke-width:35.43307114;stroke-linecap:round;stroke-linejoin:round;stroke-miterlimit:4;stroke-dasharray:none;stroke-opacity:1" />
      <rect
         y="616.61572"
         x="335.0542"
         height="82.24321"
         width="42.367718"
         id="rect4166"
         style="opacity:1;fill:#ffd1e2;fill-opacity:1;fill-rule:nonzero;stroke:none;stroke-width:35.43307114;stroke-linecap:round;stroke-linejoin:round;stroke-miterlimit:4;stroke-dasharray:none;stroke-opacity:1" />
      <path
         sodipodi:nodetypes="ccczcc"
         inkscape:connector-curvature="0"
         id="rect4136"
         d="m 270.25651,663.96787 174.4553,0 0,305.34158 c 0,0 -57.52891,37.33845 -87.22765,37.33845 -29.69874,0 -87.22765,-37.33845 -87.22765,-37.33845 z"
         style="opacity:1;fill:#7647ff;fill-opacity:1;fill-rule:nonzero;stroke:none;stroke-width:35.43307114;stroke-linecap:round;stroke-linejoin:round;stroke-miterlimit:4;stroke-dasharray:none;stroke-opacity:1" />
      <ellipse
         ry="96.798584"
         rx="102.79865"
         cy="554.26361"
         cx="357.48416"
         id="path4141"
         style="opacity:1;fill:#ffd1e2;fill-opacity:1;fill-rule:nonzero;stroke:none;stroke-width:35.43307114;stroke-linecap:round;stroke-linejoin:round;stroke-miterlimit:4;stroke-dasharray:none;stroke-opacity:1" />
      <rect
         y="460.1044"
         x="260.28766"
         height="42.367718"
         width="215.5769"
         id="rect4146"
         style="opacity:1;fill:#fb59d5;fill-opacity:1;fill-rule:nonzero;stroke:none;stroke-width:35.43307114;stroke-linecap:round;stroke-linejoin:round;stroke-miterlimit:4;stroke-dasharray:none;stroke-opacity:1" />
      <ellipse
         style="opacity:1;fill:#000000;fill-opacity:1;fill-rule:nonzero;stroke:none;stroke-width:35.43307114;stroke-linecap:round;stroke-linejoin:round;stroke-miterlimit:4;stroke-dasharray:none;stroke-opacity:1"
         id="ellipse4152"
         cx="299.5401"
         cy="566.77136"
         rx="9.3458195"
         ry="21.183857" />
      <ellipse
         ry="21.183857"
         rx="9.3458195"
         cy="566.77136"
         cx="416.67435"
         id="ellipse4154"
         style="opacity:1;fill:#000000;fill-opacity:1;fill-rule:nonzero;stroke:none;stroke-width:35.43307114;stroke-linecap:round;stroke-linejoin:round;stroke-miterlimit:4;stroke-dasharray:none;stroke-opacity:1" />
      <ellipse
         ry="5.4273748"
         rx="5.1689281"
         cy="555.25165"
         cx="414.98572"
         id="path4160"
         style="opacity:1;fill:#ffffff;fill-opacity:1;fill-rule:nonzero;stroke:none;stroke-width:35.43307114;stroke-linecap:round;stroke-linejoin:round;stroke-miterlimit:4;stroke-dasharray:none;stroke-opacity:1" />
      <ellipse
         style="opacity:1;fill:#ffffff;fill-opacity:1;fill-rule:nonzero;stroke:none;stroke-width:35.43307114;stroke-linecap:round;stroke-linejoin:round;stroke-miterlimit:4;stroke-dasharray:none;stroke-opacity:1"
         id="ellipse4162"
         cx="297.7951"
         cy="555.25165"
         rx="5.1689281"
         ry="5.4273748" />
      <rect
         y="610.46448"
         x="338.63098"
         height="11.895287"
         width="32.601898"
         id="rect4164"
         style="opacity:1;fill:#000000;fill-opacity:1;fill-rule:nonzero;stroke:none;stroke-width:35.43307114;stroke-linecap:round;stroke-linejoin:round;stroke-miterlimit:4;stroke-dasharray:none;stroke-opacity:1" />
      <rect
         y="683.9057"
         x="417.29742"
         height="276.63626"
         width="27.414402"
         id="rect4168"
         style="opacity:1;fill:#4425a2;fill-opacity:1;fill-rule:nonzero;stroke:none;stroke-width:35.43307114;stroke-linecap:round;stroke-linejoin:round;stroke-miterlimit:4;stroke-dasharray:none;stroke-opacity:1" />
      <rect
         style="opacity:1;fill:#4425a2;fill-opacity:1;fill-rule:nonzero;stroke:none;stroke-width:35.43307114;stroke-linecap:round;stroke-linejoin:round;stroke-miterlimit:4;stroke-dasharray:none;stroke-opacity:1"
         id="rect4170"
         width="22.429966"
         height="276.63626"
         x="270.25653"
         y="683.9057" />
      <rect
         style="opacity:1;fill:#4425a2;fill-opacity:1;fill-rule:nonzero;stroke:none;stroke-width:35.43307114;stroke-linecap:round;stroke-linejoin:round;stroke-miterlimit:4;stroke-dasharray:none;stroke-opacity:1"
         id="rect4172"
         width="59.813244"
         height="14.953307"
         x="328.57443"
         y="663.96796" />
      <g
         transform="matrix(0.8722765,0,0,0.8722765,50.941287,112.37317)"
         id="g4179">
        <path
           style="opacity:1;fill:#ffd1e2;fill-opacity:1;fill-rule:nonzero;stroke:none;stroke-width:35.43307114;stroke-linecap:round;stroke-linejoin:round;stroke-miterlimit:4;stroke-dasharray:none;stroke-opacity:1"
           d="m 421.43858,688.12542 29.98999,1.27848 -0.5634,98.65045 -98.57618,57.30861 68.07032,-72.3613 z"
           id="rect4174"
           inkscape:connector-curvature="0"
           sodipodi:nodetypes="cccccc" />
        <ellipse
           style="opacity:1;fill:#4425a2;fill-opacity:1;fill-rule:nonzero;stroke:none;stroke-width:35.43307114;stroke-linecap:round;stroke-linejoin:round;stroke-miterlimit:4;stroke-dasharray:none;stroke-opacity:1"
           id="path4177"
           cx="900.55096"
           cy="92.908371"
           rx="15.152288"
           ry="30.304577"
           transform="matrix(0.48611993,0.87389211,-0.87389211,0.48611993,0,0)" />
      </g>
      <g
         transform="matrix(-0.8722765,0,0,0.8722765,663.04593,112.37317)"
         id="g4183">
        <path
           sodipodi:nodetypes="cccccc"
           inkscape:connector-curvature="0"
           id="path4185"
           d="m 421.43858,688.12542 29.98999,1.27848 -0.5634,98.65045 -98.57618,57.30861 69.22839,-72.3613 z"
           style="opacity:1;fill:#ffd1e2;fill-opacity:1;fill-rule:nonzero;stroke:none;stroke-width:35.43307114;stroke-linecap:round;stroke-linejoin:round;stroke-miterlimit:4;stroke-dasharray:none;stroke-opacity:1" />
        <ellipse
           transform="matrix(0.48611993,0.87389211,-0.87389211,0.48611993,0,0)"
           ry="30.304577"
           rx="15.152288"
           cy="92.908371"
           cx="900.55096"
           id="ellipse4187"
           style="opacity:1;fill:#4425a2;fill-opacity:1;fill-rule:nonzero;stroke:none;stroke-width:35.43307114;stroke-linecap:round;stroke-linejoin:round;stroke-miterlimit:4;stroke-dasharray:none;stroke-opacity:1" />
      </g>
      <path
         sodipodi:nodetypes="czccczccc"
         inkscape:connector-curvature="0"
         id="rect4189"
         d="m 212.1885,441.38337 c 0,0 94.43064,19.38175 142.30287,19.38175 47.87224,0 142.30287,-19.38175 142.30287,-19.38175 l 0,12.24111 0,12.24111 c 0,0 -94.43063,19.38175 -142.30287,19.38175 -47.87223,0 -142.30287,-19.38175 -142.30287,-19.38175 l 0,-12.24111 z"
         style="opacity:1;fill:#ffd372;fill-opacity:1;fill-rule:nonzero;stroke:none;stroke-width:35.43307114;stroke-linecap:round;stroke-linejoin:round;stroke-miterlimit:4;stroke-dasharray:none;stroke-opacity:1" />
      <rect
         transform="matrix(-0.99213692,-0.12515723,-0.34559905,0.93838228,0,0)"
         y="427.64331"
         x="-451.32016"
         height="20.100702"
         width="32.013195"
         id="rect4192"
         style="opacity:1;fill:#fffcf4;fill-opacity:1;fill-rule:nonzero;stroke:none;stroke-width:35.43307114;stroke-linecap:round;stroke-linejoin:round;stroke-miterlimit:4;stroke-dasharray:none;stroke-opacity:1" />
      <rect
         y="402.28494"
         x="341.28476"
         height="78.504883"
         width="29.906622"
         id="rect4194"
         style="opacity:1;fill:#ffd372;fill-opacity:1;fill-rule:nonzero;stroke:none;stroke-width:35.43307114;stroke-linecap:round;stroke-linejoin:round;stroke-miterlimit:4;stroke-dasharray:none;stroke-opacity:1" />
      <rect
         y="373.62439"
         x="308.88589"
         height="47.352154"
         width="97.196526"
         id="rect4196"
         style="opacity:1;fill:#ffd372;fill-opacity:1;fill-rule:nonzero;stroke:none;stroke-width:35.43307114;stroke-linecap:round;stroke-linejoin:round;stroke-miterlimit:4;stroke-dasharray:none;stroke-opacity:1" />
      <rect
         y="381.10107"
         x="327.57755"
         height="31.152729"
         width="61.682411"
         id="rect4198"
         style="opacity:1;fill:#72f7ff;fill-opacity:1;fill-rule:nonzero;stroke:none;stroke-width:35.43307114;stroke-linecap:round;stroke-linejoin:round;stroke-miterlimit:4;stroke-dasharray:none;stroke-opacity:1" />
      <rect
         y="384.83939"
         x="329.44672"
         height="9.9688749"
         width="12.461093"
         id="rect4200"
         style="opacity:1;fill:#ffffff;fill-opacity:1;fill-rule:nonzero;stroke:none;stroke-width:35.43307114;stroke-linecap:round;stroke-linejoin:round;stroke-miterlimit:4;stroke-dasharray:none;stroke-opacity:1" />
      <rect
         y="385.68274"
         x="381.67639"
         height="26.168297"
         width="7.4766555"
         id="rect4202"
         style="opacity:1;fill:#00519f;fill-opacity:1;fill-rule:nonzero;stroke:none;stroke-width:35.43307114;stroke-linecap:round;stroke-linejoin:round;stroke-miterlimit:4;stroke-dasharray:none;stroke-opacity:1" />
      <rect
         transform="matrix(0,1,-1,0,0,0)"
         style="opacity:1;fill:#00519f;fill-opacity:1;fill-rule:nonzero;stroke:none;stroke-width:35.43307114;stroke-linecap:round;stroke-linejoin:round;stroke-miterlimit:4;stroke-dasharray:none;stroke-opacity:1"
         id="rect4204"
         width="7.4766555"
         height="26.168297"
         x="404.50073"
         y="-389.24698" />
    </g>
  </g>
</svg>
