<?xml version="1.0" encoding="UTF-8" standalone="no"?>
<!-- Created with Inkscape (http://www.inkscape.org/) -->

<svg
   xmlns:dc="http://purl.org/dc/elements/1.1/"
   xmlns:cc="http://creativecommons.org/ns#"
   xmlns:rdf="http://www.w3.org/1999/02/22-rdf-syntax-ns#"
   xmlns:svg="http://www.w3.org/2000/svg"
   xmlns="http://www.w3.org/2000/svg"
   xmlns:sodipodi="http://sodipodi.sourceforge.net/DTD/sodipodi-0.dtd"
   xmlns:inkscape="http://www.inkscape.org/namespaces/inkscape"
   width="200mm"
   height="200mm"
   viewBox="0 0 708.66142 708.66141"
   id="svg5347"
   version="1.1"
   inkscape:version="0.91 r13725"
   sodipodi:docname="tree.svg">
  <defs
     id="defs5349" />
  <sodipodi:namedview
     id="base"
     pagecolor="#ffffff"
     bordercolor="#666666"
     borderopacity="1.0"
     inkscape:pageopacity="0.0"
     inkscape:pageshadow="2"
     inkscape:zoom="1"
     inkscape:cx="-118.0437"
     inkscape:cy="321.65964"
     inkscape:document-units="px"
     inkscape:current-layer="layer1"
     showgrid="false"
     inkscape:window-width="1920"
     inkscape:window-height="1017"
     inkscape:window-x="-8"
     inkscape:window-y="-8"
     inkscape:window-maximized="1" />
  <metadata
     id="metadata5352">
    <rdf:RDF>
      <cc:Work
         rdf:about="">
        <dc:format>image/svg+xml</dc:format>
        <dc:type
           rdf:resource="http://purl.org/dc/dcmitype/StillImage" />
        <dc:title></dc:title>
      </cc:Work>
    </rdf:RDF>
  </metadata>
  <g
     inkscape:label="Layer 1"
     inkscape:groupmode="layer"
     id="layer1"
     transform="translate(0,-343.70079)">
    <path
       style="opacity:1;fill:#1f1f1f;fill-opacity:1;fill-rule:nonzero;stroke:none;stroke-width:35.43307114;stroke-linecap:round;stroke-linejoin:round;stroke-miterlimit:4;stroke-dasharray:none;stroke-opacity:1"
       d="m 302.05215,348.9207 c -55.30956,0.92029 -112.81792,20.38858 -149.76703,62.49531 -16.08804,18.97061 -26.48507,43.21764 -26.56497,68.14678 -50.249179,13.11895 -95.92603,51.01287 -109.10863,101.81796 -12.7974487,50.20509 12.047399,105.56533 55.497161,133.42728 42.336019,29.62759 97.674499,37.78643 147.916989,27.21368 6.85778,2.8095 14.95934,5.54415 19.88568,11.08169 16.0722,41.12229 20.91148,85.34149 24.54238,128.90354 0.52474,20.59472 -8.27699,41.28009 -24.51908,54.42608 -21.75426,19.49079 -48.22478,32.47433 -73.38953,47.00635 -21.65008,11.51283 -44.96268,20.38083 -65.43484,33.80083 -8.622956,11.5059 6.37909,29.7227 19.50812,23.3042 13.13125,-2.5697 27.37163,-6.5388 39.83076,-8.0909 0.71643,9.6734 7.53244,21.8909 18.86609,20.476 12.43011,-2.0866 17.71415,-15.0375 24.60794,-23.8319 3.07041,-5.4627 8.98313,-8.5885 15.24314,-8.3296 10.44457,-2.2914 20.88915,-4.5828 31.33371,-6.8742 -0.77797,10.1396 -0.20501,23.8284 10.50246,28.7674 11.8244,3.6629 22.80003,-7.6298 24.21314,-18.5654 1.94286,-3.7804 2.06161,-11.0996 8.2889,-9.0726 24.85672,0.037 50.79969,5.6983 71.23377,20.2189 8.23974,5.1756 20.4839,11.6411 29.36172,4.3545 4.50408,-3.4193 7.49863,-9.9613 9.92367,-13.6904 1.45175,11.7955 17.02633,15.81 26.61262,10.7979 22.16208,-9.5395 45.31223,-16.9912 68.18956,-24.8038 11.97982,3.6592 23.4091,10.8909 35.0434,16.161 11.70013,4.9857 23.41163,12.5491 36.56276,12.2995 12.19539,-2.2447 13.93826,-19.5794 6.01208,-27.3467 -2.3215,-2.4576 -6.50554,-4.2218 -0.50021,-3.4958 19.91792,-0.2338 39.91227,6.7378 55.94283,18.6466 11.89932,7.6438 23.29344,17.9423 37.71109,20.2699 12.69644,-1.5929 17.40098,-19.612 8.46713,-27.9862 -13.79454,-24.1204 -30.33125,-50.24882 -58.06631,-60.14527 -52.67673,-20.63123 -111.13259,3.24582 -163.74439,-16.78711 -20.82339,-7.60039 -44.82242,-15.4925 -56.31706,-35.8425 -15.5726,-29.18498 -11.52806,-63.95443 -2.45261,-94.43638 6.51497,-19.71559 19.69759,-36.74605 34.03332,-51.40934 4.88484,-0.46575 9.8794,2.01864 14.93821,1.94615 68.61596,8.18405 142.35709,-8.47847 195.08981,-54.0403 31.25725,-27.97788 51.25281,-71.35755 42.56944,-113.24962 -9.00608,-45.36853 -44.59538,-81.51501 -85.57201,-101.49448 -34.25453,-17.55992 -72.85647,-25.47136 -111.20529,-27.23318 -6.15535,-43.07769 -39.52558,-78.09058 -78.35561,-96.11187 -32.97168,-16.31562 -70.20048,-23.24892 -106.93031,-22.724 z m -22.04557,356.35249 c 1.35487,3.98058 -2.83174,1.37009 0,0 z m 81.43044,25.90519 c 2.58551,2.10386 -4.20419,1.4471 0,0 z"
       id="ellipse5953"
       inkscape:connector-curvature="0" />
    <g
       transform="matrix(1.1131118,0,0,0.93472765,40.676753,318.17823)"
       id="g5915">
      <ellipse
         style="opacity:1;fill:#269b2a;fill-opacity:1;fill-rule:nonzero;stroke:none;stroke-width:35.43307114;stroke-linecap:round;stroke-linejoin:round;stroke-miterlimit:4;stroke-dasharray:none;stroke-opacity:1"
         id="ellipse5917"
         cx="395.71429"
         cy="319.5051"
         rx="171.42857"
         ry="142.85715" />
      <path
         inkscape:connector-curvature="0"
         style="opacity:1;fill:#27752a;fill-opacity:1;fill-rule:nonzero;stroke:none;stroke-width:35.43307114;stroke-linecap:round;stroke-linejoin:round;stroke-miterlimit:4;stroke-dasharray:none;stroke-opacity:1"
         d="M 542.82227,-97.232422 A 242.14285,183.57143 0 0 1 300.71484,85.804688 242.14285,183.57143 0 0 1 285.5293,85.228516 171.42857,142.85715 0 0 0 395.71484,118.66211 171.42857,142.85715 0 0 0 567.14258,-24.195312 171.42857,142.85715 0 0 0 542.82227,-97.232422 Z"
         transform="translate(0,343.70079)"
         id="path5919" />
    </g>
    <g
       id="g5911"
       transform="matrix(0.86120894,0,0,0.85007018,-162.91023,337.99033)">
      <ellipse
         ry="142.85715"
         rx="171.42857"
         cy="319.5051"
         cx="395.71429"
         id="path5904"
         style="opacity:1;fill:#269b2a;fill-opacity:1;fill-rule:nonzero;stroke:none;stroke-width:35.43307114;stroke-linecap:round;stroke-linejoin:round;stroke-miterlimit:4;stroke-dasharray:none;stroke-opacity:1" />
      <path
         id="ellipse5906"
         transform="translate(0,343.70079)"
         d="M 542.82227,-97.232422 A 242.14285,183.57143 0 0 1 300.71484,85.804688 242.14285,183.57143 0 0 1 285.5293,85.228516 171.42857,142.85715 0 0 0 395.71484,118.66211 171.42857,142.85715 0 0 0 567.14258,-24.195312 171.42857,142.85715 0 0 0 542.82227,-97.232422 Z"
         style="opacity:1;fill:#27752a;fill-opacity:1;fill-rule:nonzero;stroke:none;stroke-width:35.43307114;stroke-linecap:round;stroke-linejoin:round;stroke-miterlimit:4;stroke-dasharray:none;stroke-opacity:1"
         inkscape:connector-curvature="0" />
    </g>
    <g
       id="g5921"
       transform="matrix(0.96632897,0,0,0.81146776,-74.037754,220.94201)">
      <ellipse
         ry="142.85715"
         rx="171.42857"
         cy="319.5051"
         cx="395.71429"
         id="ellipse5923"
         style="opacity:1;fill:#269b2a;fill-opacity:1;fill-rule:nonzero;stroke:none;stroke-width:35.43307114;stroke-linecap:round;stroke-linejoin:round;stroke-miterlimit:4;stroke-dasharray:none;stroke-opacity:1" />
      <path
         id="path5925"
         transform="translate(0,343.70079)"
         d="M 542.82227,-97.232422 A 242.14285,183.57143 0 0 1 300.71484,85.804688 242.14285,183.57143 0 0 1 285.5293,85.228516 171.42857,142.85715 0 0 0 395.71484,118.66211 171.42857,142.85715 0 0 0 567.14258,-24.195312 171.42857,142.85715 0 0 0 542.82227,-97.232422 Z"
         style="opacity:1;fill:#27752a;fill-opacity:1;fill-rule:nonzero;stroke:none;stroke-width:35.43307114;stroke-linecap:round;stroke-linejoin:round;stroke-miterlimit:4;stroke-dasharray:none;stroke-opacity:1"
         inkscape:connector-curvature="0" />
    </g>
    <path
       style="fill:#262626;fill-opacity:1;fill-rule:evenodd;stroke:none;stroke-width:1px;stroke-linecap:butt;stroke-linejoin:miter;stroke-opacity:1"
       d="m 273.85853,506.64341 c -9.69491,2.16466 -10.19164,13.65921 -12.68456,21.36012 -8.92849,35.8176 -19.28229,73.06397 -13.16505,110.21606 3.9104,19.21977 12.15624,37.18885 20.84961,54.64648 -24.56724,-16.12905 -52.68524,-25.58954 -78.81379,-38.76716 -10.5198,-4.8861 -21.03917,-9.77314 -31.55926,-14.65862 2.46112,23.09047 4.9239,46.18077 7.38282,69.27148 25.91719,12.37851 51.83465,24.75647 77.75195,37.13477 13.22344,32.75954 19.9474,67.78669 23.19756,102.78676 80.69627,79.4054 126.65734,-41.61827 129.7517,-49.47192 13.1746,-27.2274 36.0861,-47.89947 57.0156,-69.05117 12.7178,-8.41683 28.2398,-10.61334 41.9308,-16.99741 21.3199,-8.09554 43.6114,-14.50424 63.6668,-25.39712 5.8649,-6.26001 -1.9031,-17.5299 -9.8574,-14.72266 -35.9419,3.50116 -71.616,8.98758 -107.3819,13.16524 -8.2894,0.99832 -16.5404,2.88721 -23.0061,8.55585 -19.2572,12.09912 -38.7331,24.99389 -57.8542,36.59727 -5.2844,-10.84283 -13.5024,-20.32356 -15.3849,-32.32001 3.3145,-36.25211 7.1607,-72.50525 8.7931,-108.90069 -15.9988,20.24031 -28.62341,42.82048 -42.1738,64.67578 -15.00968,-21.52835 -24.23469,-47.38539 -25.15786,-73.78101 -2.72531,-23.37306 -1.11252,-47.56606 -5.93198,-70.70532 -1.58668,-2.37123 -4.48776,-3.9811 -7.36914,-3.63672 z"
       id="path5996"
       inkscape:connector-curvature="0"
       sodipodi:nodetypes="ccccccccccccccccccccccc" />
    <path
       style="fill:#512f1a;fill-opacity:1;fill-rule:evenodd;stroke:none;stroke-width:1px;stroke-linecap:butt;stroke-linejoin:miter;stroke-opacity:1"
       d="m 115.13724,1026.1264 c 0,0 122.53784,-53.38538 150.09642,-92.29327 27.55858,-38.90789 12.48485,-72.486 9.84238,-109.29473 -2.64246,-36.80874 -22.14537,-85.00703 -22.14537,-85.00703 l -76.27851,-36.43157 -4.92119,-46.14668 83.6603,38.86036 44.29074,31.57403 c 0,0 -37.3238,-61.39818 -41.83015,-97.15088 -4.50634,-35.75269 17.22418,-109.29474 17.22418,-109.29474 0,0 1.85696,73.94453 9.84239,99.57965 7.98543,25.63514 29.52716,53.43298 29.52716,53.43298 l 29.52717,-48.57543 -7.38179,80.14948 22.14538,41.28912 76.2785,-48.57544 115.64806,-14.57263 -98.42388,36.43158 c 0,0 -55.06765,49.26791 -66.43612,82.57825 -12.30956,36.06778 -16.64083,81.0913 2.46059,114.15228 13.86861,24.00393 44.93045,34.59905 71.35731,43.71788 53.0123,18.29239 118.44679,-7.87234 167.32061,19.43018 19.84597,11.08661 41.83014,53.43301 41.83014,53.43301 0,0 -41.38879,-30.4616 -63.97552,-36.4316 -22.58674,-5.96997 -66.43612,0 -66.43612,0 l 29.52716,29.1452 -66.43611,-31.574 -81.19971,29.1453 39.36955,-31.57407 c 0,0 -36.12873,-2.32171 -49.21193,4.85757 -13.0832,7.1792 -24.60597,31.5741 -24.60597,31.5741 0,0 -31.27525,-19.2888 -49.21194,-24.2878 -17.9367,-4.9991 -56.59374,-4.8575 -56.59374,-4.8575 l -12.30298,29.1453 0,-34.0029 -66.43611,14.5727 -22.14537,29.1452 -4.14929,-24.9634 z"
       id="path5895"
       inkscape:connector-curvature="0"
       sodipodi:nodetypes="czzccccczczcccccccsssaczccccczczccccccc" />
    <path
       inkscape:connector-curvature="0"
       style="fill:#7a4d30;fill-opacity:1;fill-rule:evenodd;stroke:none;stroke-width:1px;stroke-linecap:butt;stroke-linejoin:miter;stroke-opacity:1"
       d="m 275.0758,520.94128 c 0,0 -21.73052,73.54277 -17.22417,109.29546 4.50634,35.75269 41.83086,97.15039 41.83086,97.15039 l -44.2917,-31.57379 -83.66006,-38.86082 4.92168,46.14785 76.27753,36.43181 c 0,0 19.50339,48.19828 22.14586,85.00702 2.64247,36.80874 17.71692,70.38589 -9.84167,109.29378 -27.55858,38.90791 -150.09761,92.29412 -150.09761,92.29412 l 59.8271,-12.8209 4.14962,24.9642 22.14417,-29.1447 66.43757,-14.5725 0,34.0028 12.3025,-29.1465 c 0,0 29.89181,-0.1078 49.30085,3.2659 l -12.07376,-333.29227 -2.77874,4.57079 c 0,0 -21.54125,-27.79643 -29.52667,-53.43156 -7.98543,-25.63514 -9.84336,-99.58108 -9.84336,-99.58108 z"
       id="path5897" />
  </g>
</svg>
