<?xml version="1.0" encoding="UTF-8" standalone="no"?>
<!-- Created with Inkscape (http://www.inkscape.org/) -->

<svg
   xmlns:dc="http://purl.org/dc/elements/1.1/"
   xmlns:cc="http://creativecommons.org/ns#"
   xmlns:rdf="http://www.w3.org/1999/02/22-rdf-syntax-ns#"
   xmlns:svg="http://www.w3.org/2000/svg"
   xmlns="http://www.w3.org/2000/svg"
   xmlns:sodipodi="http://sodipodi.sourceforge.net/DTD/sodipodi-0.dtd"
   xmlns:inkscape="http://www.inkscape.org/namespaces/inkscape"
   width="200mm"
   height="200mm"
   viewBox="0 0 708.66142 708.66141"
   id="svg5347"
   version="1.1"
   inkscape:version="0.91 r13725"
   sodipodi:docname="tree.svg">
  <defs
     id="defs5349" />
  <sodipodi:namedview
     id="base"
     pagecolor="#ffffff"
     bordercolor="#666666"
     borderopacity="1.0"
     inkscape:pageopacity="0.0"
     inkscape:pageshadow="2"
     inkscape:zoom="0.35355339"
     inkscape:cx="-315.97765"
     inkscape:cy="73.491876"
     inkscape:document-units="px"
     inkscape:current-layer="layer1"
     showgrid="false"
     inkscape:window-width="1920"
     inkscape:window-height="1017"
     inkscape:window-x="-8"
     inkscape:window-y="-8"
     inkscape:window-maximized="1" />
  <metadata
     id="metadata5352">
    <rdf:RDF>
      <cc:Work
         rdf:about="">
        <dc:format>image/svg+xml</dc:format>
        <dc:type
           rdf:resource="http://purl.org/dc/dcmitype/StillImage" />
        <dc:title />
      </cc:Work>
    </rdf:RDF>
  </metadata>
  <g
     inkscape:label="Layer 1"
     inkscape:groupmode="layer"
     id="layer1"
     transform="translate(0,-343.70079)">
    <g
       id="g4286"
       transform="matrix(0.94478857,0,0,0.86153839,25.710814,72.019561)">
      <path
         inkscape:connector-curvature="0"
         id="rect4239"
         d="m 356.81055,339.35742 c -18.48169,1.56339 -28.63575,19.40051 -39.13903,32.24862 -67.68385,82.96265 -136.93405,164.68818 -202.85316,249.07365 -9.34324,20.96616 14.35282,45.75488 35.79687,39.20898 5.57861,-0.15135 11.15991,-0.17142 16.74024,-0.14844 -32.55503,40.02884 -66.96027,78.77033 -96.82422,120.93165 -7.24682,20.6921 15.643444,43.07584 36.24219,37.20117 10.22053,-0.15378 20.44263,-0.15587 30.66406,-0.12891 -28.10608,34.48745 -57.893318,67.75998 -83.166016,104.4375 -6.97651,20.60133 15.697258,42.65823 36.167969,36.9668 59.902757,-0.2194 119.805987,-0.10587 179.708987,-0.1211 0.32547,33.50385 -2.79479,67.35986 2.89258,100.57036 8.14841,15.4327 28.00564,18.6534 43.77343,16.1152 37.18078,-0.9233 74.72459,3.2796 111.60743,-2.9512 15.3377,-8.1053 18.63351,-27.8293 16.0957,-43.5254 0.29787,-23.4448 0.17962,-46.89189 0.17383,-70.33786 66.30383,-0.62052 132.71,2.18324 198.93554,-1.82422 20.55248,-7.49739 23.3941,-39.28308 5.88477,-51.53516 -24.08223,-29.20259 -48.18623,-58.38789 -72.02344,-87.79101 19.45276,0.16663 40.56866,2.29535 58.33399,-7.11719 14.36081,-13.02911 10.52708,-38.17327 -4.76601,-48.83259 -27.75265,-33.95488 -55.59189,-67.83888 -83.34142,-101.79632 16.097,0.36032 34.53707,0.7048 47.42969,-10.43945 11.50899,-14.35253 5.54184,-36.56572 -8.53462,-46.89068 -70.7947,-85.67038 -140.21749,-172.49224 -211.94975,-257.38276 -5.09906,-3.82344 -11.43489,-6.14335 -17.84961,-5.93164 z"
         style="opacity:1;fill:#161616;fill-opacity:1;fill-rule:nonzero;stroke:none;stroke-width:10;stroke-linecap:round;stroke-linejoin:round;stroke-miterlimit:4;stroke-dasharray:none;stroke-opacity:1" />
      <rect
         y="915.04132"
         x="297.33716"
         height="131.52188"
         width="118.79394"
         id="rect4229"
         style="opacity:1;fill:#57462e;fill-opacity:1;fill-rule:nonzero;stroke:none;stroke-width:10;stroke-linecap:round;stroke-linejoin:round;stroke-miterlimit:4;stroke-dasharray:none;stroke-opacity:1" />
      <g
         transform="translate(51.154329,203.50462)"
         id="g4235">
        <path
           style="opacity:1;fill:#6ba33f;fill-opacity:1;fill-rule:nonzero;stroke:none;stroke-width:10;stroke-linecap:round;stroke-linejoin:round;stroke-miterlimit:4;stroke-dasharray:none;stroke-opacity:1"
           d="M 305.5798,162.27333 88.595016,426.9811 l 85.910424,0 -129.471604,157.94796 99.600164,0 -115.780084,141.24529 553.451764,0 -115.78008,-141.24529 99.60015,0 -129.4716,-157.94796 85.91043,0 z"
           id="rect4213"
           inkscape:connector-curvature="0"
           sodipodi:nodetypes="cccccccccccc" />
        <path
           sodipodi:nodetypes="cccccccc"
           inkscape:connector-curvature="0"
           id="path4231"
           d="m 305.5798,162.27333 0,563.90102 276.72588,0 -115.78008,-141.24529 99.60015,0 -129.4716,-157.94796 85.91043,0 z"
           style="opacity:1;fill:#568333;fill-opacity:1;fill-rule:nonzero;stroke:none;stroke-width:10;stroke-linecap:round;stroke-linejoin:round;stroke-miterlimit:4;stroke-dasharray:none;stroke-opacity:1" />
      </g>
    </g>
  </g>
</svg>
