<?xml version="1.0" encoding="UTF-8" standalone="no"?>
<!-- Created with Inkscape (http://www.inkscape.org/) -->

<svg
   xmlns:dc="http://purl.org/dc/elements/1.1/"
   xmlns:cc="http://creativecommons.org/ns#"
   xmlns:rdf="http://www.w3.org/1999/02/22-rdf-syntax-ns#"
   xmlns:svg="http://www.w3.org/2000/svg"
   xmlns="http://www.w3.org/2000/svg"
   xmlns:sodipodi="http://sodipodi.sourceforge.net/DTD/sodipodi-0.dtd"
   xmlns:inkscape="http://www.inkscape.org/namespaces/inkscape"
   width="200mm"
   height="200mm"
   viewBox="0 0 708.66142 708.66141"
   id="svg4306"
   version="1.1"
   inkscape:version="0.91 r13725"
   sodipodi:docname="wall.svg">
  <defs
     id="defs4308" />
  <sodipodi:namedview
     id="base"
     pagecolor="#ffffff"
     bordercolor="#666666"
     borderopacity="1.0"
     inkscape:pageopacity="0.0"
     inkscape:pageshadow="2"
     inkscape:zoom="0.74137004"
     inkscape:cx="55.390342"
     inkscape:cy="596.24737"
     inkscape:document-units="px"
     inkscape:current-layer="layer1"
     showgrid="false"
     inkscape:window-width="1920"
     inkscape:window-height="1017"
     inkscape:window-x="-8"
     inkscape:window-y="-8"
     inkscape:window-maximized="1" />
  <metadata
     id="metadata4311">
    <rdf:RDF>
      <cc:Work
         rdf:about="">
        <dc:format>image/svg+xml</dc:format>
        <dc:type
           rdf:resource="http://purl.org/dc/dcmitype/StillImage" />
        <dc:title></dc:title>
      </cc:Work>
    </rdf:RDF>
  </metadata>
  <g
     inkscape:label="Layer 1"
     inkscape:groupmode="layer"
     id="layer1"
     transform="translate(0,-343.70079)">
    <rect
       style="opacity:1;fill:#4c4c4c;fill-opacity:1;fill-rule:nonzero;stroke:none;stroke-width:35.43307114;stroke-linecap:round;stroke-linejoin:round;stroke-miterlimit:4;stroke-dasharray:none;stroke-opacity:1"
       id="rect5330"
       width="803.08124"
       height="803.08124"
       x="-47.209892"
       y="296.49088" />
    <g
       id="g11176"
       transform="translate(-28.613516,-13.352974)">
      <rect
         ry="31.390636"
         y="391.42374"
         x="67.442703"
         height="151.07166"
         width="307.53873"
         id="rect11169"
         style="opacity:1;fill:#898989;fill-opacity:1;fill-rule:nonzero;stroke:none;stroke-width:14.64400005;stroke-linecap:round;stroke-linejoin:miter;stroke-miterlimit:4;stroke-dasharray:none;stroke-opacity:1" />
      <path
         id="rect11171"
         transform="translate(0,343.70079)"
         d="m 107.9082,66.607422 c -8.214125,0 -15.120442,5.385747 -17.404294,12.832031 -0.795464,2.049721 -1.248047,4.271929 -1.248047,6.609375 l 0,73.900392 c 0,10.08808 8.120904,18.20898 18.208981,18.20898 l 20.23243,0 c 10.08808,0 18.21093,-8.1209 18.21093,-18.20898 l 0,-36.68945 167.02539,0 c 10.08808,0 18.21094,-8.12286 18.21094,-18.21094 l 0,-20.232424 c 0,-10.08808 -8.12286,-18.208984 -18.21094,-18.208984 l -205.02539,0 z"
         style="opacity:1;fill:#bcbcbc;fill-opacity:1;fill-rule:nonzero;stroke:none;stroke-width:14.64400005;stroke-linecap:round;stroke-linejoin:miter;stroke-miterlimit:4;stroke-dasharray:none;stroke-opacity:1"
         inkscape:connector-curvature="0" />
    </g>
    <g
       id="g11180"
       transform="matrix(1.269817,0,0,1.2146574,-28.688813,93.38179)">
      <rect
         style="opacity:1;fill:#898989;fill-opacity:1;fill-rule:nonzero;stroke:none;stroke-width:14.64400005;stroke-linecap:round;stroke-linejoin:miter;stroke-miterlimit:4;stroke-dasharray:none;stroke-opacity:1"
         id="rect11182"
         width="307.53873"
         height="151.07166"
         x="67.442703"
         y="391.42374"
         ry="31.390636" />
      <path
         style="opacity:1;fill:#bcbcbc;fill-opacity:1;fill-rule:nonzero;stroke:none;stroke-width:14.64400005;stroke-linecap:round;stroke-linejoin:miter;stroke-miterlimit:4;stroke-dasharray:none;stroke-opacity:1"
         d="m 107.9082,66.607422 c -8.214125,0 -15.120442,5.385747 -17.404294,12.832031 -0.795464,2.049721 -1.248047,4.271929 -1.248047,6.609375 l 0,73.900392 c 0,10.08808 8.120904,18.20898 18.208981,18.20898 l 20.23243,0 c 10.08808,0 18.21093,-8.1209 18.21093,-18.20898 l 0,-36.68945 167.02539,0 c 10.08808,0 18.21094,-8.12286 18.21094,-18.21094 l 0,-20.232424 c 0,-10.08808 -8.12286,-18.208984 -18.21094,-18.208984 l -205.02539,0 z"
         transform="translate(0,343.70079)"
         id="path11184"
         inkscape:connector-curvature="0" />
    </g>
    <g
       transform="matrix(0.82012194,0,0,0.84216365,363.12393,46.520352)"
       id="g11186">
      <rect
         ry="31.390636"
         y="391.42374"
         x="67.442703"
         height="151.07166"
         width="307.53873"
         id="rect11188"
         style="opacity:1;fill:#898989;fill-opacity:1;fill-rule:nonzero;stroke:none;stroke-width:14.64400005;stroke-linecap:round;stroke-linejoin:miter;stroke-miterlimit:4;stroke-dasharray:none;stroke-opacity:1" />
      <path
         inkscape:connector-curvature="0"
         id="path11190"
         transform="translate(0,343.70079)"
         d="m 107.9082,66.607422 c -8.214125,0 -15.120442,5.385747 -17.404294,12.832031 -0.795464,2.049721 -1.248047,4.271929 -1.248047,6.609375 l 0,73.900392 c 0,10.08808 8.120904,18.20898 18.208981,18.20898 l 20.23243,0 c 10.08808,0 18.21093,-8.1209 18.21093,-18.20898 l 0,-36.68945 167.02539,0 c 10.08808,0 18.21094,-8.12286 18.21094,-18.21094 l 0,-20.232424 c 0,-10.08808 -8.12286,-18.208984 -18.21094,-18.208984 l -205.02539,0 z"
         style="opacity:1;fill:#bcbcbc;fill-opacity:1;fill-rule:nonzero;stroke:none;stroke-width:14.64400005;stroke-linecap:round;stroke-linejoin:miter;stroke-miterlimit:4;stroke-dasharray:none;stroke-opacity:1" />
    </g>
    <g
       id="g11192"
       transform="matrix(0.61233179,0,0,1.0126269,452.48678,162.9235)">
      <rect
         style="opacity:1;fill:#898989;fill-opacity:1;fill-rule:nonzero;stroke:none;stroke-width:14.64400005;stroke-linecap:round;stroke-linejoin:miter;stroke-miterlimit:4;stroke-dasharray:none;stroke-opacity:1"
         id="rect11194"
         width="307.53873"
         height="151.07166"
         x="67.442703"
         y="391.42374"
         ry="31.390636" />
      <path
         style="opacity:1;fill:#bcbcbc;fill-opacity:1;fill-rule:nonzero;stroke:none;stroke-width:14.64400005;stroke-linecap:round;stroke-linejoin:miter;stroke-miterlimit:4;stroke-dasharray:none;stroke-opacity:1"
         d="m 107.9082,66.607422 c -8.214125,0 -15.120442,5.385747 -17.404294,12.832031 -0.795464,2.049721 -1.248047,4.271929 -1.248047,6.609375 l 0,73.900392 c 0,10.08808 8.120904,18.20898 18.208981,18.20898 l 20.23243,0 c 10.08808,0 18.21093,-8.1209 18.21093,-18.20898 l 0,-36.68945 167.02539,0 c 10.08808,0 18.21094,-8.12286 18.21094,-18.21094 l 0,-20.232424 c 0,-10.08808 -8.12286,-18.208984 -18.21094,-18.208984 l -205.02539,0 z"
         transform="translate(0,343.70079)"
         id="path11196"
         inkscape:connector-curvature="0" />
    </g>
    <g
       transform="matrix(0.77980445,0,0,1.2841054,-17.578068,328.48877)"
       id="g11198">
      <rect
         ry="31.390636"
         y="391.42374"
         x="67.442703"
         height="151.07166"
         width="307.53873"
         id="rect11200"
         style="opacity:1;fill:#898989;fill-opacity:1;fill-rule:nonzero;stroke:none;stroke-width:14.64400005;stroke-linecap:round;stroke-linejoin:miter;stroke-miterlimit:4;stroke-dasharray:none;stroke-opacity:1" />
      <path
         inkscape:connector-curvature="0"
         id="path11202"
         transform="translate(0,343.70079)"
         d="m 107.9082,66.607422 c -8.214125,0 -15.120442,5.385747 -17.404294,12.832031 -0.795464,2.049721 -1.248047,4.271929 -1.248047,6.609375 l 0,73.900392 c 0,10.08808 8.120904,18.20898 18.208981,18.20898 l 20.23243,0 c 10.08808,0 18.21093,-8.1209 18.21093,-18.20898 l 0,-36.68945 167.02539,0 c 10.08808,0 18.21094,-8.12286 18.21094,-18.21094 l 0,-20.232424 c 0,-10.08808 -8.12286,-18.208984 -18.21094,-18.208984 l -205.02539,0 z"
         style="opacity:1;fill:#bcbcbc;fill-opacity:1;fill-rule:nonzero;stroke:none;stroke-width:14.64400005;stroke-linecap:round;stroke-linejoin:miter;stroke-miterlimit:4;stroke-dasharray:none;stroke-opacity:1" />
    </g>
    <g
       id="g11204"
       transform="matrix(1.1333578,0,0,0.62119279,254.25033,530.74147)">
      <rect
         style="opacity:1;fill:#898989;fill-opacity:1;fill-rule:nonzero;stroke:none;stroke-width:14.64400005;stroke-linecap:round;stroke-linejoin:miter;stroke-miterlimit:4;stroke-dasharray:none;stroke-opacity:1"
         id="rect11206"
         width="307.53873"
         height="151.07166"
         x="67.442703"
         y="391.42374"
         ry="31.390636" />
      <path
         style="opacity:1;fill:#bcbcbc;fill-opacity:1;fill-rule:nonzero;stroke:none;stroke-width:14.64400005;stroke-linecap:round;stroke-linejoin:miter;stroke-miterlimit:4;stroke-dasharray:none;stroke-opacity:1"
         d="m 107.9082,66.607422 c -8.214125,0 -15.120442,5.385747 -17.404294,12.832031 -0.795464,2.049721 -1.248047,4.271929 -1.248047,6.609375 l 0,73.900392 c 0,10.08808 8.120904,18.20898 18.208981,18.20898 l 20.23243,0 c 10.08808,0 18.21093,-8.1209 18.21093,-18.20898 l 0,-36.68945 167.02539,0 c 10.08808,0 18.21094,-8.12286 18.21094,-18.21094 l 0,-20.232424 c 0,-10.08808 -8.12286,-18.208984 -18.21094,-18.208984 l -205.02539,0 z"
         transform="translate(0,343.70079)"
         id="path11208"
         inkscape:connector-curvature="0" />
    </g>
    <g
       transform="matrix(0.59992636,0,0,0.65907351,274.96585,654.21271)"
       id="g11210">
      <rect
         ry="31.390636"
         y="391.42374"
         x="67.442703"
         height="151.07166"
         width="307.53873"
         id="rect11212"
         style="opacity:1;fill:#898989;fill-opacity:1;fill-rule:nonzero;stroke:none;stroke-width:14.64400005;stroke-linecap:round;stroke-linejoin:miter;stroke-miterlimit:4;stroke-dasharray:none;stroke-opacity:1" />
      <path
         inkscape:connector-curvature="0"
         id="path11214"
         transform="translate(0,343.70079)"
         d="m 107.9082,66.607422 c -8.214125,0 -15.120442,5.385747 -17.404294,12.832031 -0.795464,2.049721 -1.248047,4.271929 -1.248047,6.609375 l 0,73.900392 c 0,10.08808 8.120904,18.20898 18.208981,18.20898 l 20.23243,0 c 10.08808,0 18.21093,-8.1209 18.21093,-18.20898 l 0,-36.68945 167.02539,0 c 10.08808,0 18.21094,-8.12286 18.21094,-18.21094 l 0,-20.232424 c 0,-10.08808 -8.12286,-18.208984 -18.21094,-18.208984 l -205.02539,0 z"
         style="opacity:1;fill:#bcbcbc;fill-opacity:1;fill-rule:nonzero;stroke:none;stroke-width:14.64400005;stroke-linecap:round;stroke-linejoin:miter;stroke-miterlimit:4;stroke-dasharray:none;stroke-opacity:1" />
    </g>
    <g
       id="g11216"
       transform="matrix(0.39523755,0,0,0.84847711,510.04847,567.67646)">
      <rect
         style="opacity:1;fill:#898989;fill-opacity:1;fill-rule:nonzero;stroke:none;stroke-width:14.64400005;stroke-linecap:round;stroke-linejoin:miter;stroke-miterlimit:4;stroke-dasharray:none;stroke-opacity:1"
         id="rect11218"
         width="307.53873"
         height="151.07166"
         x="67.442703"
         y="391.42374"
         ry="31.390636" />
      <path
         style="opacity:1;fill:#bcbcbc;fill-opacity:1;fill-rule:nonzero;stroke:none;stroke-width:14.64400005;stroke-linecap:round;stroke-linejoin:miter;stroke-miterlimit:4;stroke-dasharray:none;stroke-opacity:1"
         d="m 107.9082,66.607422 c -8.214125,0 -15.120442,5.385747 -17.404294,12.832031 -0.795464,2.049721 -1.248047,4.271929 -1.248047,6.609375 l 0,73.900392 c 0,10.08808 8.120904,18.20898 18.208981,18.20898 l 20.23243,0 c 10.08808,0 18.21093,-8.1209 18.21093,-18.20898 l 0,-36.68945 167.02539,0 c 10.08808,0 18.21094,-8.12286 18.21094,-18.21094 l 0,-20.232424 c 0,-10.08808 -8.12286,-18.208984 -18.21094,-18.208984 l -205.02539,0 z"
         transform="translate(0,343.70079)"
         id="path11220"
         inkscape:connector-curvature="0" />
    </g>
  </g>
</svg>
