<?xml version="1.0" encoding="UTF-8" standalone="no"?>
<!-- Created with Inkscape (http://www.inkscape.org/) -->

<svg
   xmlns:dc="http://purl.org/dc/elements/1.1/"
   xmlns:cc="http://creativecommons.org/ns#"
   xmlns:rdf="http://www.w3.org/1999/02/22-rdf-syntax-ns#"
   xmlns:svg="http://www.w3.org/2000/svg"
   xmlns="http://www.w3.org/2000/svg"
   xmlns:sodipodi="http://sodipodi.sourceforge.net/DTD/sodipodi-0.dtd"
   xmlns:inkscape="http://www.inkscape.org/namespaces/inkscape"
   width="200mm"
   height="200mm"
   viewBox="0 0 708.66142 708.66141"
   id="svg2"
   version="1.1"
   inkscape:version="0.91 r13725"
   sodipodi:docname="wizard.svg">
  <defs
     id="defs4" />
  <sodipodi:namedview
     id="base"
     pagecolor="#ffffff"
     bordercolor="#666666"
     borderopacity="1.0"
     inkscape:pageopacity="0.0"
     inkscape:pageshadow="2"
     inkscape:zoom="0.9899495"
     inkscape:cx="47.042482"
     inkscape:cy="317.78021"
     inkscape:document-units="px"
     inkscape:current-layer="layer1"
     showgrid="false"
     inkscape:window-width="1920"
     inkscape:window-height="1017"
     inkscape:window-x="-8"
     inkscape:window-y="-8"
     inkscape:window-maximized="1" />
  <metadata
     id="metadata7">
    <rdf:RDF>
      <cc:Work
         rdf:about="">
        <dc:format>image/svg+xml</dc:format>
        <dc:type
           rdf:resource="http://purl.org/dc/dcmitype/StillImage" />
        <dc:title></dc:title>
      </cc:Work>
    </rdf:RDF>
  </metadata>
  <g
     inkscape:label="Layer 1"
     inkscape:groupmode="layer"
     id="layer1"
     transform="translate(0,-343.70079)">
    <ellipse
       style="opacity:0.3;fill:#000000;fill-opacity:1;fill-rule:nonzero;stroke:none;stroke-width:35.43307114;stroke-linecap:round;stroke-linejoin:round;stroke-miterlimit:4;stroke-dasharray:none;stroke-opacity:1"
       id="path4236"
       cx="365.06161"
       cy="962.15717"
       rx="169.13344"
       ry="43.172832" />
    <path
       sodipodi:nodetypes="cczc"
       inkscape:connector-curvature="0"
       id="path4317"
       d="M 328.71093,924.48366 306.24155,908.9223 c 0,0 -80.10603,42.59347 -60.90234,61.63817 19.2037,19.0447 83.37172,-46.07681 83.37172,-46.07681 z"
       style="opacity:1;fill:#000000;fill-opacity:1;fill-rule:nonzero;stroke:none;stroke-width:20;stroke-linecap:round;stroke-linejoin:miter;stroke-miterlimit:4;stroke-dasharray:none;stroke-opacity:1" />
    <path
       style="opacity:1;fill:#000000;fill-opacity:1;fill-rule:nonzero;stroke:none;stroke-width:20;stroke-linecap:round;stroke-linejoin:miter;stroke-miterlimit:4;stroke-dasharray:none;stroke-opacity:1"
       d="m 406.01073,924.48366 22.46938,-15.56136 c 0,0 80.10603,42.59347 60.90234,61.63817 -19.2037,19.0447 -83.37172,-46.07681 -83.37172,-46.07681 z"
       id="rect4314"
       inkscape:connector-curvature="0"
       sodipodi:nodetypes="cczc" />
    <path
       style="opacity:1;fill:#1c1c1c;fill-opacity:1;fill-rule:nonzero;stroke:none;stroke-width:35.43307114;stroke-linecap:round;stroke-linejoin:round;stroke-miterlimit:4;stroke-dasharray:none;stroke-opacity:1"
       d="m -1006.6074,465.8082 c -26.1072,1.58287 -52.6313,-2.07136 -78.6222,1.9179 -10.6621,3.72129 -13.4935,16.58222 -12.5126,26.62568 -0.079,3.37578 1.206,7.63421 -0.1901,10.47733 -15.8008,4.24621 -30.4848,12.08633 -43.4734,21.95826 -10.7452,-3.06459 -24.8667,-5.54904 -33.2904,3.79445 -7.0576,12.93734 -6.2697,29.17826 -0.8614,42.48139 0.1995,1.63636 -2.2149,3.63791 -2.0509,5.75453 -12.3095,38.62093 -5.0216,79.8827 3.853,118.38393 13.5543,58.12071 35.2716,115.70084 33.512,176.03701 -0.4675,23.65703 -11.0574,47.02172 -29.0854,62.70915 -7.8905,7.97142 -17.7712,17.90643 -15.9521,30.12527 3.7721,12.11699 18.5063,16.61802 29.8877,13.90098 8.1167,0.40507 17.5372,-0.74097 24.8385,0.60724 -0.5556,11.60371 5.4031,23.92498 16.6089,28.31188 24.2435,14.8855 50.7324,29.7994 79.9918,29.7706 29.2629,-2.5536 54.48358,-19.3416 79.19919,-33.6954 7.52015,-5.92073 10.71447,-16.05122 9.76638,-25.36587 13.13527,0.51944 26.66862,1.63816 39.81618,-0.54396 6.70008,-1.12457 14.47754,-3.42501 16.62782,-10.71872 3.69668,-9.75792 -1.10682,-21.31975 -9.84782,-26.60059 -16.12475,-15.98838 -32.24506,-35.3117 -33.22653,-59.13278 -5.84003,-53.43896 12.26864,-105.37415 25.08882,-156.62949 11.69368,-44.25042 23.05624,-90.72965 14.2258,-136.58356 -2.08324,-10.14188 -7.53629,-19.40515 -8.99097,-29.60834 0.1332,-10.19215 2.29729,-22.82752 -5.93555,-30.66153 -7.03661,-6.40037 -17.86746,-7.03894 -26.32146,-3.54645 -5.35563,-3.55315 -10.0013,-8.15612 -16.10322,-10.52335 -8.92032,-4.8166 -18.44405,-8.53681 -28.30103,-10.92071 0.74536,-11.75345 1.27817,-26.42603 -8.86035,-34.537 -6.0637,-3.14999 -13.04971,-3.90572 -19.79066,-3.78785 z"
       id="path4194"
       inkscape:connector-curvature="0" />
    <path
       style="fill:#5f5f5f;fill-opacity:1;fill-rule:evenodd;stroke:none;stroke-width:1px;stroke-linecap:butt;stroke-linejoin:miter;stroke-opacity:1"
       d="m 190.97975,634.15905 86.87311,-172.73608 83.84266,-37.37564 82.83251,50.50762 83.84266,159.60411 -5.05076,24.24366 -118.18785,-9.09138 -100.0051,1.01016 -100.51017,7.57614 z"
       id="path4224"
       inkscape:connector-curvature="0"
       sodipodi:nodetypes="cccccccccc" />
    <ellipse
       style="opacity:1;fill:#d1978e;fill-opacity:1;fill-rule:nonzero;stroke:none;stroke-width:35.43307114;stroke-linecap:round;stroke-linejoin:round;stroke-miterlimit:4;stroke-dasharray:none;stroke-opacity:1"
       id="path4141"
       cx="360.11603"
       cy="571.9953"
       rx="79.958313"
       ry="75.291374" />
    <path
       style="fill:#545454;fill-opacity:1;fill-rule:evenodd;stroke:none;stroke-width:1px;stroke-linecap:butt;stroke-linejoin:miter;stroke-opacity:1"
       d="M 249.56859,544.67345 362.68218,576.0939 465.74123,542.15983 358.91172,456.69623 Z"
       id="path4226"
       inkscape:connector-curvature="0"
       sodipodi:nodetypes="ccccc" />
    <g
       id="g4228"
       transform="translate(340.48232,-104.04571)">
      <ellipse
         style="opacity:1;fill:#000000;fill-opacity:1;fill-rule:nonzero;stroke:none;stroke-width:35.43307114;stroke-linecap:round;stroke-linejoin:round;stroke-miterlimit:4;stroke-dasharray:none;stroke-opacity:1"
         id="ellipse4152"
         cx="-35.477959"
         cy="682.5885"
         rx="7.911418"
         ry="12.881783" />
      <ellipse
         style="opacity:1;fill:#ffffff;fill-opacity:1;fill-rule:nonzero;stroke:none;stroke-width:35.43307114;stroke-linecap:round;stroke-linejoin:round;stroke-miterlimit:4;stroke-dasharray:none;stroke-opacity:1"
         id="ellipse4162"
         cx="-36.955135"
         cy="675.58344"
         rx="4.3755984"
         ry="3.3003561" />
    </g>
    <g
       transform="translate(444.52803,-106.06602)"
       id="g4232">
      <ellipse
         ry="12.881783"
         rx="7.911418"
         cy="682.5885"
         cx="-35.477959"
         id="ellipse4234"
         style="opacity:1;fill:#000000;fill-opacity:1;fill-rule:nonzero;stroke:none;stroke-width:35.43307114;stroke-linecap:round;stroke-linejoin:round;stroke-miterlimit:4;stroke-dasharray:none;stroke-opacity:1" />
      <ellipse
         ry="3.3003561"
         rx="4.3755984"
         cy="675.58344"
         cx="-36.955135"
         id="ellipse4236"
         style="opacity:1;fill:#ffffff;fill-opacity:1;fill-rule:nonzero;stroke:none;stroke-width:35.43307114;stroke-linecap:round;stroke-linejoin:round;stroke-miterlimit:4;stroke-dasharray:none;stroke-opacity:1" />
    </g>
    <rect
       y="626.64154"
       x="347.18695"
       height="10.069592"
       width="27.598141"
       id="rect4238"
       style="opacity:1;fill:#000000;fill-opacity:1;fill-rule:nonzero;stroke:none;stroke-width:35.43307114;stroke-linecap:round;stroke-linejoin:round;stroke-miterlimit:4;stroke-dasharray:none;stroke-opacity:1" />
    <path
       style="fill:#656565;fill-opacity:1;fill-rule:evenodd;stroke:none;stroke-width:1px;stroke-linecap:butt;stroke-linejoin:miter;stroke-opacity:1"
       d="m 352.62445,647.33165 -130.30967,0 -30.30458,41.41625 -3.03045,220.21322 359.6143,0 -5.05077,-216.17261 -45.45686,-48.48732 z"
       id="path4240"
       inkscape:connector-curvature="0" />
    <rect
       style="opacity:1;fill:#818181;fill-opacity:1;fill-rule:nonzero;stroke:none;stroke-width:20;stroke-linecap:round;stroke-linejoin:miter;stroke-miterlimit:4;stroke-dasharray:none;stroke-opacity:1"
       id="rect4242"
       width="218.19295"
       height="239.40614"
       x="256.63965"
       y="689.71753" />
    <path
       style="fill:#7e7e7e;fill-opacity:1;fill-rule:evenodd;stroke:none;stroke-width:1px;stroke-linecap:butt;stroke-linejoin:miter;stroke-opacity:1"
       d="m 256.63966,690.72759 -44.44671,81.82236 -38.3858,34.34519 59.599,-22.22336 30.30458,-36.36549 z"
       id="path4244"
       inkscape:connector-curvature="0" />
    <g
       id="g4296"
       transform="matrix(0.99676718,-0.0803442,0.0803442,0.99676718,57.504552,-56.273157)">
      <rect
         y="541.22504"
         x="55.640503"
         height="479.82245"
         width="13.131983"
         id="rect4248"
         style="opacity:1;fill:#ca5dc2;fill-opacity:1;fill-rule:nonzero;stroke:none;stroke-width:20;stroke-linecap:round;stroke-linejoin:miter;stroke-miterlimit:4;stroke-dasharray:none;stroke-opacity:1" />
      <g
         id="g4284">
        <g
           id="g4276"
           transform="matrix(-1,0,0,1,124.41299,0)">
          <path
             style="opacity:1;fill:#000000;fill-opacity:1;fill-rule:nonzero;stroke:none;stroke-width:20;stroke-linecap:round;stroke-linejoin:miter;stroke-miterlimit:4;stroke-dasharray:none;stroke-opacity:1"
             d="M 80.766617,509.84686 109.9436,591.16871 63.532973,518.29489 Z"
             id="path4278"
             inkscape:connector-curvature="0"
             sodipodi:nodetypes="cccc" />
          <path
             sodipodi:nodetypes="cccc"
             inkscape:connector-curvature="0"
             id="path4280"
             d="M 80.985445,483.50823 135.2826,536.25686 63.628275,496.63022 Z"
             style="opacity:1;fill:#000000;fill-opacity:1;fill-rule:nonzero;stroke:none;stroke-width:20;stroke-linecap:round;stroke-linejoin:miter;stroke-miterlimit:4;stroke-dasharray:none;stroke-opacity:1"
             inkscape:transform-center-x="-16.162441"
             inkscape:transform-center-y="22.223356" />
          <path
             inkscape:transform-center-y="12.305781"
             inkscape:transform-center-x="-25.088921"
             style="opacity:1;fill:#000000;fill-opacity:1;fill-rule:nonzero;stroke:none;stroke-width:20;stroke-linecap:round;stroke-linejoin:miter;stroke-miterlimit:4;stroke-dasharray:none;stroke-opacity:1"
             d="M 65.554611,463.34402 134.69941,494.15952 53.780148,481.6421 Z"
             id="path4282"
             inkscape:connector-curvature="0"
             sodipodi:nodetypes="cccc" />
        </g>
        <g
           id="g4271">
          <path
             sodipodi:nodetypes="cccc"
             inkscape:connector-curvature="0"
             id="rect4264"
             d="M 80.766617,509.84686 109.9436,591.16871 63.532973,518.29489 Z"
             style="opacity:1;fill:#000000;fill-opacity:1;fill-rule:nonzero;stroke:none;stroke-width:20;stroke-linecap:round;stroke-linejoin:miter;stroke-miterlimit:4;stroke-dasharray:none;stroke-opacity:1" />
          <path
             inkscape:transform-center-y="22.223356"
             inkscape:transform-center-x="-16.162441"
             style="opacity:1;fill:#000000;fill-opacity:1;fill-rule:nonzero;stroke:none;stroke-width:20;stroke-linecap:round;stroke-linejoin:miter;stroke-miterlimit:4;stroke-dasharray:none;stroke-opacity:1"
             d="M 80.985445,483.50823 135.2826,536.25686 63.628275,496.63022 Z"
             id="path4267"
             inkscape:connector-curvature="0"
             sodipodi:nodetypes="cccc" />
          <path
             sodipodi:nodetypes="cccc"
             inkscape:connector-curvature="0"
             id="path4269"
             d="M 65.554611,463.34402 134.69941,494.15952 53.780148,481.6421 Z"
             style="opacity:1;fill:#000000;fill-opacity:1;fill-rule:nonzero;stroke:none;stroke-width:20;stroke-linecap:round;stroke-linejoin:miter;stroke-miterlimit:4;stroke-dasharray:none;stroke-opacity:1"
             inkscape:transform-center-x="-25.088921"
             inkscape:transform-center-y="12.305781" />
        </g>
        <ellipse
           style="opacity:1;fill:#872f80;fill-opacity:1;fill-rule:nonzero;stroke:none;stroke-width:20;stroke-linecap:round;stroke-linejoin:miter;stroke-miterlimit:4;stroke-dasharray:none;stroke-opacity:1"
           id="path4250"
           cx="62.629459"
           cy="494.758"
           rx="26.263966"
           ry="50.507626" />
        <ellipse
           style="opacity:1;fill:#f941ea;fill-opacity:1;fill-rule:nonzero;stroke:none;stroke-width:20;stroke-linecap:round;stroke-linejoin:miter;stroke-miterlimit:4;stroke-dasharray:none;stroke-opacity:1"
           id="path4262"
           cx="53.538086"
           cy="474.0499"
           rx="7.0710678"
           ry="19.697975" />
      </g>
    </g>
    <ellipse
       style="opacity:1;fill:#3b3b3b;fill-opacity:1;fill-rule:nonzero;stroke:none;stroke-width:20;stroke-linecap:round;stroke-linejoin:miter;stroke-miterlimit:4;stroke-dasharray:none;stroke-opacity:1"
       id="path4246"
       cx="185.92897"
       cy="807.40027"
       rx="20.203051"
       ry="17.67767" />
    <rect
       style="opacity:1;fill:#494949;fill-opacity:1;fill-rule:nonzero;stroke:none;stroke-width:20;stroke-linecap:round;stroke-linejoin:miter;stroke-miterlimit:4;stroke-dasharray:none;stroke-opacity:1"
       id="rect4310"
       width="28.284271"
       height="179.80714"
       x="446.52805"
       y="749.29614" />
    <rect
       y="749.29614"
       x="256.61938"
       height="179.80714"
       width="28.284271"
       id="rect4312"
       style="opacity:1;fill:#494949;fill-opacity:1;fill-rule:nonzero;stroke:none;stroke-width:20;stroke-linecap:round;stroke-linejoin:miter;stroke-miterlimit:4;stroke-dasharray:none;stroke-opacity:1" />
  </g>
</svg>
